<svg width="60" height="60" viewBox="0 0 60 60" fill="none" xmlns="http://www.w3.org/2000/svg">
<path fill-rule="evenodd" clip-rule="evenodd" d="M32.2503 58.6163C31.8537 59.4524 30.9862 60 30.0009 60C29.0157 60 28.1295 59.4524 27.7453 58.6163C27.3178 58.3278 26.1342 57.9097 25.7191 57.7861C24.1885 57.3268 22.4906 57.1443 20.8981 56.9323C18.7107 56.6497 16.5295 56.3611 14.3793 55.8783C4.06811 53.5584 -1.23619 45.6683 0.244799 35.8057C0.647578 33.103 1.5275 30.4652 2.45699 27.892C3.1696 25.9019 3.95037 23.9352 4.63819 21.9392C5.14012 20.4907 5.67303 18.8891 5.83414 17.37C6.06961 15.1207 5.22068 12.3533 3.44225 10.8047C2.45699 9.94504 2.37643 8.48479 3.25635 7.53091L9.48394 0.800784C10.2399 -0.0117763 11.4669 -0.229638 12.4769 0.270854C17.9609 2.99117 23.2528 3.74485 28.6501 0.388616C29.4804 -0.129539 30.5214 -0.129539 31.3518 0.388616C36.749 3.74485 42.0347 2.99117 47.5249 0.270854C48.535 -0.229638 49.7619 -0.0117763 50.5117 0.800784L56.7393 7.53091C57.6254 8.48479 57.5448 9.94504 56.5596 10.8047C54.7811 12.3533 53.9322 15.1207 54.1677 17.37C54.3226 18.8891 54.8617 20.4907 55.3636 21.9392C56.0515 23.9352 56.826 25.9019 57.5448 27.892C58.4681 30.4652 59.3542 33.103 59.757 35.8057C61.2318 45.6683 55.9275 53.5584 45.6226 55.8783C43.4723 56.3611 41.2849 56.6497 39.0975 56.9323C37.5112 57.1443 35.8071 57.3268 34.2766 57.7861C33.8676 57.9097 32.6717 58.3278 32.2503 58.6163Z" fill="#102A83"/>
<path fill-rule="evenodd" clip-rule="evenodd" d="M31.1783 57.9921C31.0234 58.4926 30.5524 58.8282 30.0009 58.8282C29.437 58.8282 28.9661 58.4867 28.8236 57.998C28.5571 57.4916 26.6238 56.8322 26.0909 56.6732C24.5169 56.1963 22.7013 55.9902 21.0654 55.7723C18.9152 55.4956 16.7774 55.2188 14.6581 54.7419C4.92944 52.5515 0.077492 45.1972 1.46553 35.9705C1.84972 33.368 2.72964 30.7478 3.62195 28.2689C4.34076 26.2787 5.11533 24.3062 5.80935 22.3042C6.32987 20.791 6.89376 19.0657 7.06107 17.4818C7.33372 14.8734 6.34226 11.7468 4.27259 9.93914C3.78306 9.50931 3.73969 8.78507 4.17965 8.30813L10.4072 1.57212C10.7914 1.16584 11.3987 1.05985 11.9068 1.30715C17.7936 4.23355 23.5379 4.96368 29.3255 1.36603C29.7407 1.10695 30.255 1.10695 30.6763 1.36603C36.4578 4.96368 42.202 4.23355 48.095 1.30715C48.6031 1.05985 49.2104 1.16584 49.5884 1.57212L55.816 8.30813C56.2559 8.78507 56.2188 9.50931 55.723 9.93914C53.6534 11.7468 52.6681 14.8734 52.9408 17.4818C53.1081 19.0657 53.672 20.791 54.1925 22.3042C54.8803 24.3062 55.6611 26.2787 56.3799 28.2689C57.2722 30.7478 58.1459 33.368 58.5363 35.9705C59.9181 45.1972 55.0662 52.5515 45.3375 54.7419C43.2245 55.2188 41.0805 55.4956 38.9302 55.7723C37.2943 55.9902 35.4787 56.1963 33.9048 56.6732C33.3781 56.8322 31.4633 57.4858 31.1783 57.9921Z" fill="white"/>
<path fill-rule="evenodd" clip-rule="evenodd" d="M30.0009 57.6565C29.7778 56.897 28.4518 56.1492 26.4627 55.5545C23.5626 54.683 19.256 54.5711 14.9432 53.5996C5.14012 51.3916 1.49651 44.0432 2.68007 36.1354C3.60336 29.9823 7.79227 22.2924 8.2818 17.5996C8.67219 13.9195 6.94333 10.6811 5.10914 9.07949L11.3367 2.34937C17.5581 5.43474 23.7795 6.21786 30.0009 2.34937C36.2223 6.21786 42.4437 5.43474 48.6651 2.34937L54.8927 9.07949C53.0585 10.6811 51.3296 13.9195 51.7138 17.5996C52.2034 22.2924 56.3923 29.9823 57.3156 36.1354C58.4991 44.0432 54.8617 51.3916 45.0525 53.5996C40.7396 54.5711 36.433 54.683 33.533 55.5545C31.5501 56.1492 30.224 56.897 30.0009 57.6565Z" fill="#102A83"/>
<path d="M29.9451 6.60059C33.6321 8.08439 33.7065 12.2179 31.9528 17.6879C33.4462 17.5113 34.3447 15.5623 34.6607 11.841C36.5445 16.84 35.5716 21.3445 34.227 25.7782C34.7537 27.1148 36.842 26.897 37.2137 26.1374L39.2772 21.8862C39.3516 29.1874 38.2548 35.8822 33.1798 39.58C32.5229 40.0569 32.715 41.0285 32.9877 41.7527C34.1588 41.2876 35.2804 40.528 36.3772 39.6271C35.2866 41.5407 32.9815 43.6251 31.0915 44.214C31.0481 44.2316 30.0071 44.4141 29.9637 44.4259C29.9327 44.42 28.8669 44.2375 28.8421 44.2316C26.9398 43.6605 24.6037 41.5525 23.5069 39.6271C24.6037 40.528 25.7252 41.2876 26.8964 41.7527C27.169 41.0285 27.3611 40.0569 26.7043 39.58C21.6355 35.8822 20.5325 29.1874 20.6068 21.8862L22.6703 26.1374C23.0421 26.897 25.1304 27.1148 25.6571 25.7782C24.3124 21.3445 23.3395 16.84 25.2295 11.841C25.5393 15.5623 26.4378 17.5113 27.9312 17.6879C26.1776 12.2179 26.252 8.08439 29.9451 6.60059Z" stroke="white" stroke-width="0.270089" stroke-linejoin="round"/>
<path fill-rule="evenodd" clip-rule="evenodd" d="M29.0528 47.5525H30.856V48.0177H29.0528V47.5525Z" fill="#DCE281" stroke="#1B1918" stroke-width="0.561824"/>
<path fill-rule="evenodd" clip-rule="evenodd" d="M29.0528 48.2238H30.856V48.683H29.0528V48.2238Z" fill="#DCE281" stroke="#1B1918" stroke-width="0.561824"/>
<path d="M29.0528 48.2238L30.856 48.683M30.856 48.2238L29.0528 48.683" stroke="#1B1918" stroke-width="0.0335793"/>
<path fill-rule="evenodd" clip-rule="evenodd" d="M29.0528 48.895H30.856V49.3543H29.0528V48.895Z" fill="#DCE281" stroke="#1B1918" stroke-width="0.561824"/>
<path d="M29.0528 48.895L30.856 49.3543M30.856 48.895L29.0528 49.3543" stroke="#1B1918" stroke-width="0.0335793"/>
<path fill-rule="evenodd" clip-rule="evenodd" d="M29.0528 49.5663H30.856V50.0256H29.0528V49.5663Z" fill="#DCE281" stroke="#1B1918" stroke-width="0.561824"/>
<path d="M29.0528 49.5663L30.856 50.0256M30.856 49.5663L29.0528 50.0256" stroke="#1B1918" stroke-width="0.0335793"/>
<path fill-rule="evenodd" clip-rule="evenodd" d="M29.0528 50.2375H30.856V50.6968H29.0528V50.2375Z" fill="#DCE281" stroke="#1B1918" stroke-width="0.561824"/>
<path d="M29.0528 50.2375L30.856 50.6968M30.856 50.2375L29.0528 50.6968" stroke="#1B1918" stroke-width="0.0335793"/>
<path fill-rule="evenodd" clip-rule="evenodd" d="M29.0528 50.9088H30.856V51.3681H29.0528V50.9088Z" fill="#DCE281" stroke="#1B1918" stroke-width="0.561824"/>
<path d="M29.0528 50.9088L30.856 51.3681M30.856 50.9088L29.0528 51.3681" stroke="#1B1918" stroke-width="0.0335793"/>
<path fill-rule="evenodd" clip-rule="evenodd" d="M28.4517 11.9941H31.5934L30.8994 47.0403H29.0466L28.4517 11.9941Z" fill="#DCE281" stroke="#1B1918" stroke-width="0.270089"/>
<path fill-rule="evenodd" clip-rule="evenodd" d="M30.0195 9.79196C30.8498 9.79196 31.5315 10.581 31.5872 11.582H28.4517C28.5075 10.581 29.1891 9.79196 30.0195 9.79196Z" fill="white" stroke="#1B1918" stroke-width="0.556209"/>
<path fill-rule="evenodd" clip-rule="evenodd" d="M40.4236 12.9657C47.8099 20.2022 47.8037 33.4446 40.0456 42.6242C40.467 42.789 40.6776 43.2012 40.8821 42.948C50.0717 31.372 46.4591 16.6693 40.9007 12.6124C40.752 12.5064 40.5723 12.7655 40.4236 12.9657Z" fill="#1D1B13" stroke="#1B1918" stroke-width="0.196453"/>
<path fill-rule="evenodd" clip-rule="evenodd" d="M39.5994 42.1413L39.8349 38.1315C40.8388 39.162 41.9727 40.0393 42.7101 40.8754L43.0386 41.894L40.3492 42.6889C40.0704 42.583 39.8225 42.3945 39.5994 42.1413Z" fill="#1D1B13" stroke="#1D1B13" stroke-width="0.158217"/>
<path fill-rule="evenodd" clip-rule="evenodd" d="M39.9464 38.4907C40.4608 37.9137 40.9875 37.8725 41.5947 38.4318C42.264 37.3425 43.3546 38.4201 42.7659 39.5035C43.5591 40.1865 43.4475 40.9814 43.0571 41.7586L42.5242 41.3995C42.3693 40.9166 41.9232 40.4573 41.2849 40.5633C40.814 40.2159 40.6467 39.8391 40.7892 39.1914L39.9464 38.4907Z" fill="white" stroke="#1D1B13" stroke-width="0.159445"/>
<path fill-rule="evenodd" clip-rule="evenodd" d="M44.2655 42.5771C43.3918 44.2257 41.8364 43.3543 40.3616 42.5241C40.9689 40.5162 42.6792 41.8764 44.2655 42.5771Z" fill="#00A32C" stroke="#1D1B13" stroke-width="0.196522"/>
<path fill-rule="evenodd" clip-rule="evenodd" d="M42.735 42.3827C42.1277 43.0834 41.3159 42.577 40.4732 42.4711C40.8822 41.7586 41.8055 42.5064 42.735 42.3827Z" fill="#005E24"/>
<path fill-rule="evenodd" clip-rule="evenodd" d="M39.6366 36.1355C40.1138 37.9725 40.7086 39.9156 39.5499 41.6997C37.9078 40.3101 38.4035 38.0079 39.6366 36.1355Z" fill="#00A32C" stroke="#1D1B13" stroke-width="0.196522"/>
<path fill-rule="evenodd" clip-rule="evenodd" d="M39.302 38.8145C39.7048 39.7154 39.8225 40.6516 39.5251 41.6349C39.0665 40.9696 39.1719 39.9627 39.302 38.8145Z" fill="#005E24"/>
<path fill-rule="evenodd" clip-rule="evenodd" d="M42.5986 39.109L42.1215 35.1992C43.2616 35.9176 44.5072 36.4534 45.3623 37.0599L45.8642 37.949L43.4227 39.4328C43.1315 39.4092 42.8589 39.2915 42.5986 39.109Z" fill="#1D1B13" stroke="#1D1B13" stroke-width="0.170807"/>
<path fill-rule="evenodd" clip-rule="evenodd" d="M42.2888 35.5113C42.6854 34.8224 43.1811 34.6399 43.8627 35.0167C44.3151 33.7861 45.5544 34.528 45.1764 35.7292C46.0563 36.1708 46.0935 36.9657 45.8518 37.8195L45.2755 37.6134C45.0463 37.1953 44.5381 36.8715 43.9433 37.1423C43.4289 36.9362 43.2059 36.6183 43.2245 35.9588L42.2888 35.5113Z" fill="white" stroke="#1D1B13" stroke-width="0.1667"/>
<path fill-rule="evenodd" clip-rule="evenodd" d="M47.1593 38.2728C46.6078 40.0923 44.9595 39.6742 43.398 39.2738C43.6272 37.1776 45.511 38.0314 47.1593 38.2728Z" fill="#00A32C" stroke="#1D1B13" stroke-width="0.196453"/>
<path fill-rule="evenodd" clip-rule="evenodd" d="M45.6597 38.5025C45.195 39.3386 44.3275 39.0677 43.4971 39.1914C43.7636 38.3965 44.7798 38.8675 45.6597 38.5025Z" fill="#005E24"/>
<path fill-rule="evenodd" clip-rule="evenodd" d="M41.5762 33.3327C42.3631 34.9637 43.274 36.6713 42.4747 38.7027C40.6529 37.8018 40.7272 35.4642 41.5762 33.3327Z" fill="#00A32C" stroke="#1D1B13" stroke-width="0.196453"/>
<path fill-rule="evenodd" clip-rule="evenodd" d="M41.7311 35.9941C42.2764 36.7537 42.549 37.6192 42.4437 38.6438C41.886 38.1256 41.8055 37.1305 41.7311 35.9941Z" fill="#005E24"/>
<path fill-rule="evenodd" clip-rule="evenodd" d="M44.8542 34.8636L43.8069 31.79C44.8604 32.0785 45.9696 32.2022 46.7689 32.4848L47.3266 33.0795L45.5792 34.9166C45.3375 34.9696 45.0958 34.946 44.8542 34.8636Z" fill="#1D1B13" stroke="#1D1B13" stroke-width="0.0944453"/>
<path fill-rule="evenodd" clip-rule="evenodd" d="M43.999 31.9961C44.2035 31.3366 44.5815 31.0599 45.2012 31.1953C45.3685 30.0707 46.5025 30.3651 46.3909 31.4426C47.1903 31.578 47.3514 32.2198 47.2956 32.9735L46.7937 32.9559C46.5334 32.6673 46.0625 32.5378 45.6225 32.9088C45.164 32.8734 44.9285 32.6732 44.8356 32.1256L43.999 31.9961Z" fill="white" stroke="#1D1B13" stroke-width="0.196453"/>
<path fill-rule="evenodd" clip-rule="evenodd" d="M48.4358 33.0147C48.2933 34.6399 46.8805 34.7164 45.5358 34.7871C45.3685 33.0206 47.054 33.2385 48.4358 33.0147Z" fill="#00A32C" stroke="#1D1B13" stroke-width="0.196453"/>
<path fill-rule="evenodd" clip-rule="evenodd" d="M47.2523 33.5859C47.0106 34.3867 46.2608 34.3867 45.5978 34.6987C45.6845 33.9804 46.5954 34.1099 47.2523 33.5859Z" fill="#005E24"/>
<path fill-rule="evenodd" clip-rule="evenodd" d="M43.051 30.4004C43.968 31.5368 44.9967 32.6968 44.6807 34.5574C43.0448 34.2866 42.7101 32.3612 43.051 30.4004Z" fill="#00A32C" stroke="#1D1B13" stroke-width="0.196522"/>
<path fill-rule="evenodd" clip-rule="evenodd" d="M43.6211 32.5378C44.1912 33.0147 44.5629 33.6565 44.6497 34.5221C44.1044 34.2394 43.8751 33.4446 43.6211 32.5378Z" fill="#005E24"/>
<path fill-rule="evenodd" clip-rule="evenodd" d="M45.5854 30.5712L44.2469 27.4269C45.2569 27.5152 46.2918 27.4034 47.0664 27.5388L47.6488 28.0746L46.2608 30.4711C46.0439 30.5888 45.8208 30.6124 45.5854 30.5712Z" fill="#1D1B13" stroke="#1D1B13" stroke-width="0.193347"/>
<path fill-rule="evenodd" clip-rule="evenodd" d="M44.4452 27.6153C44.5567 26.844 44.8728 26.4554 45.4614 26.4672C45.4738 25.1953 46.5582 25.2719 46.5892 26.473C47.339 26.4495 47.5683 27.1207 47.6117 27.9627L47.1407 28.0511C46.8681 27.792 46.4157 27.7508 46.0563 28.2572C45.6349 28.3219 45.3933 28.1512 45.2384 27.5682L44.4452 27.6153Z" fill="white" stroke="#1D1B13" stroke-width="0.199438"/>
<path fill-rule="evenodd" clip-rule="evenodd" d="M48.6713 27.7567C48.7332 29.5761 47.4382 29.9706 46.205 30.3415C45.8394 28.4338 47.4196 28.3042 48.6713 27.7567Z" fill="#00A32C" stroke="#1D1B13" stroke-width="0.19603"/>
<path fill-rule="evenodd" clip-rule="evenodd" d="M47.6427 28.6398C47.5187 29.5702 46.8247 29.7409 46.2546 30.2296C46.2484 29.423 47.1036 29.3641 47.6427 28.6398Z" fill="#005E24"/>
<path fill-rule="evenodd" clip-rule="evenodd" d="M43.3794 26.0668C44.3646 27.1148 45.4552 28.1629 45.3871 30.2768C43.8441 30.3357 43.305 28.2925 43.3794 26.0668Z" fill="#00A32C" stroke="#1D1B13" stroke-width="0.195956"/>
<path fill-rule="evenodd" clip-rule="evenodd" d="M44.1664 28.2866C44.7488 28.6928 45.1702 29.3111 45.3499 30.2414C44.817 30.053 44.5072 29.2345 44.1664 28.2866Z" fill="#005E24"/>
<path fill-rule="evenodd" clip-rule="evenodd" d="M45.9881 26.214L44.092 23.5349C45.0896 23.3347 46.0749 22.9343 46.8495 22.8342L47.5249 23.1875L46.6264 25.9195C46.4343 26.0962 46.2236 26.1845 45.9881 26.214Z" fill="#1D1B13" stroke="#1D1B13" stroke-width="0.194717"/>
<path fill-rule="evenodd" clip-rule="evenodd" d="M44.3213 23.6644C44.2841 22.8813 44.5195 22.4102 45.0896 22.2571C44.8666 21.0206 45.9324 20.7792 46.1926 21.9392C46.9176 21.6978 47.2646 22.2866 47.4629 23.0932L47.023 23.317C46.7131 23.1404 46.267 23.2287 46.0067 23.8293C45.6102 24.0118 45.3437 23.9117 45.0834 23.3935L44.3213 23.6644Z" fill="white" stroke="#1D1B13" stroke-width="0.198433"/>
<path fill-rule="evenodd" clip-rule="evenodd" d="M48.1693 22.369C48.8572 23.9824 47.8161 25.0187 46.8309 26.002C45.8394 24.4711 47.2275 23.5231 48.1693 22.369Z" fill="#00A32C" stroke="#1D1B13" stroke-width="0.204032"/>
<path fill-rule="evenodd" clip-rule="evenodd" d="M47.5435 23.7115C47.7542 24.6183 47.1841 25.1364 46.8371 25.8724C46.5521 25.1482 47.3018 24.6477 47.5435 23.7115Z" fill="#005E24"/>
<path fill-rule="evenodd" clip-rule="evenodd" d="M42.9952 22.4691C44.1477 23.1992 45.4057 23.9117 45.7403 25.9843C44.2531 26.4848 43.336 24.6536 42.9952 22.4691Z" fill="#00A32C" stroke="#1D1B13" stroke-width="0.198263"/>
<path fill-rule="evenodd" clip-rule="evenodd" d="M44.1788 24.4004C44.8232 24.6241 45.3437 25.1011 45.6969 25.9607C45.1454 25.9313 44.6869 25.2188 44.1788 24.4004Z" fill="#005E24"/>
<path fill-rule="evenodd" clip-rule="evenodd" d="M45.2198 21.7743L42.8093 19.7841C43.776 19.4132 44.9347 18.5123 45.6907 18.2827L46.3971 18.5123L45.8208 21.3739C45.6535 21.58 45.449 21.7037 45.2198 21.7743Z" fill="#1D1B13" stroke="#1D1B13" stroke-width="0.199565"/>
<path fill-rule="evenodd" clip-rule="evenodd" d="M43.2802 19.5427C43.1501 18.7772 43.3298 18.2709 43.8751 18.0177C43.5157 16.8283 44.5443 16.4043 44.9347 17.5113C45.6226 17.1462 46.0377 17.6644 46.3228 18.4298L45.9138 18.7243C45.5854 18.6124 45.1516 18.7772 44.9719 19.4132C44.5939 19.6605 44.3151 19.6134 43.999 19.1423L43.2802 19.5427Z" fill="white" stroke="#1D1B13" stroke-width="0.198358"/>
<path fill-rule="evenodd" clip-rule="evenodd" d="M46.9858 17.052C47.8285 18.7419 46.7317 20.1904 45.6969 21.0971C44.786 19.4897 45.9819 18.1236 46.9858 17.052Z" fill="#00A32C" stroke="#1D1B13" stroke-width="0.202566"/>
<path fill-rule="evenodd" clip-rule="evenodd" d="M46.5273 18.8597C46.6884 19.7841 46.0935 20.2552 45.7093 20.9676C45.4614 20.2198 46.236 19.7782 46.5273 18.8597Z" fill="#005E24"/>
<path fill-rule="evenodd" clip-rule="evenodd" d="M42.1586 19.6252C43.4042 20.055 44.8666 19.5309 45.5358 21.4799C44.1601 22.3455 42.8589 21.6742 42.1586 19.6252Z" fill="#00A32C" stroke="#1D1B13" stroke-width="0.204127"/>
<path fill-rule="evenodd" clip-rule="evenodd" d="M43.745 20.3199C44.408 20.3788 45.0029 20.7203 45.4924 21.4681C44.9409 21.58 44.377 20.9971 43.745 20.3199Z" fill="#005E24"/>
<path fill-rule="evenodd" clip-rule="evenodd" d="M43.2802 17.5584L40.3492 15.9215C41.3531 15.2974 42.4933 14.055 43.2864 13.6369L44.092 13.7311L43.8751 16.9872C43.7264 17.2522 43.5219 17.4347 43.2802 17.5584Z" fill="#1D1B13" stroke="#1D1B13" stroke-width="0.19693"/>
<path fill-rule="evenodd" clip-rule="evenodd" d="M40.8326 15.5506C40.5785 14.738 40.7024 14.1433 41.2663 13.7429C40.6962 12.5299 41.7559 11.8351 42.3445 12.9539C43.0448 12.4063 43.5715 12.8832 43.999 13.6546L43.5963 14.0667C43.2183 14.0137 42.7721 14.2905 42.6606 15.0324C42.2826 15.3857 41.9789 15.3916 41.5638 14.95L40.8326 15.5506Z" fill="white" stroke="#1D1B13" stroke-width="0.20255"/>
<path fill-rule="evenodd" clip-rule="evenodd" d="M44.0548 11.7174C45.4676 13.0658 44.7922 15.0972 44.0052 16.5339C42.5552 15.3091 43.3608 13.3189 44.0548 11.7174Z" fill="#00A32C" stroke="#1D1B13" stroke-width="0.174014"/>
<path fill-rule="evenodd" clip-rule="evenodd" d="M44.154 13.8194C44.6187 14.6968 44.1478 15.4681 43.9743 16.3925C43.4847 15.739 44.1478 14.9028 44.154 13.8194Z" fill="#005E24"/>
<path fill-rule="evenodd" clip-rule="evenodd" d="M39.618 15.8862C41.0432 16.0746 42.5676 15.1855 43.5839 17.1639C42.2082 18.4181 40.6838 17.9765 39.618 15.8862Z" fill="#00A32C" stroke="#1D1B13" stroke-width="0.185445"/>
<path fill-rule="evenodd" clip-rule="evenodd" d="M41.4522 16.2984C42.1896 16.2159 42.8899 16.4514 43.5281 17.1639C42.9456 17.4053 42.2454 16.8989 41.4522 16.2984Z" fill="#005E24"/>
<path fill-rule="evenodd" clip-rule="evenodd" d="M37.9449 9.81553C37.567 8.95586 36.086 7.60159 35.1937 8.2905C35.0697 9.56234 36.2471 10.581 37.0093 11.0756L37.9449 9.81553Z" fill="#00A32C" stroke="#1D1B13" stroke-width="0.196453"/>
<path fill-rule="evenodd" clip-rule="evenodd" d="M35.8567 8.83807C36.4392 8.82629 36.8606 9.39155 37.1456 10.0451C36.6561 10.157 36.1665 9.4681 35.8567 8.83807Z" fill="#005E24"/>
<path fill-rule="evenodd" clip-rule="evenodd" d="M40.3244 13.5662L37.2757 12.6889C38.137 11.8587 39.0294 10.4043 39.7234 9.82138L40.5103 9.72128L40.8078 12.8832C40.7024 13.1717 40.5351 13.3896 40.3244 13.5662Z" fill="#1D1B13" stroke="#1D1B13" stroke-width="0.177571"/>
<path fill-rule="evenodd" clip-rule="evenodd" d="M37.3439 12.9539C36.8481 12.3062 36.7738 11.6879 37.1828 11.0343C36.2595 10.1511 37.0464 8.97939 37.9635 9.7684C38.4531 8.90284 39.1037 9.10304 39.7544 9.63297L39.5065 10.2218C39.1285 10.3513 38.7877 10.8283 38.9178 11.5819C38.6761 12.1001 38.3849 12.2591 37.852 12.0353L37.3439 12.9539Z" fill="white" stroke="#1D1B13" stroke-width="0.174162"/>
<path fill-rule="evenodd" clip-rule="evenodd" d="M40.2377 8.01962C41.7806 9.00883 41.4213 11.0932 40.8759 12.6477C39.3082 11.788 39.7977 9.70363 40.2377 8.01962Z" fill="#00A32C" stroke="#1D1B13" stroke-width="0.161863"/>
<path fill-rule="evenodd" clip-rule="evenodd" d="M40.6343 10.0098C41.1982 10.7517 40.8636 11.5937 40.8264 12.5182C40.2625 12 40.7768 11.052 40.6343 10.0098Z" fill="#005E24"/>
<path fill-rule="evenodd" clip-rule="evenodd" d="M36.5693 12.8244C37.9635 12.6772 39.2772 11.4701 40.5537 13.1188C39.4321 14.6379 37.9078 14.5731 36.5693 12.8244Z" fill="#00A32C" stroke="#1D1B13" stroke-width="0.167896"/>
<path fill-rule="evenodd" clip-rule="evenodd" d="M38.3849 12.7949C39.079 12.5358 39.7792 12.6006 40.5042 13.1305C39.9837 13.5015 39.2339 13.1776 38.3849 12.7949Z" fill="#005E24"/>
<path fill-rule="evenodd" clip-rule="evenodd" d="M39.68 42.0059C38.6699 43.1423 37.5112 44.0844 36.0426 44.6556L35.4415 46.316C37.3625 45.2974 39.0975 44.0138 40.4856 42.1943L39.68 42.0059Z" fill="#1D1B13" stroke="#1D1B13" stroke-width="0.196453"/>
<path fill-rule="evenodd" clip-rule="evenodd" d="M21.778 11.8822C22.5216 12.6536 23.4511 12.0295 24.0769 10.4102C23.1351 10.9696 22.9492 10.2159 21.778 11.8822Z" fill="#FFCB00" stroke="#1D1B13" stroke-width="0.200242"/>
<path fill-rule="evenodd" clip-rule="evenodd" d="M22.9616 11.4818C22.8376 11.7115 21.5549 12.106 21.2823 12.0648C21.5116 11.9764 22.7075 11.4347 22.9616 11.4818Z" fill="#1D1B13"/>
<path fill-rule="evenodd" clip-rule="evenodd" d="M20.5759 10.84C20.1421 9.23258 21.3442 8.10794 23.4697 8.01962C22.3357 9.19725 23.0545 9.9156 20.5759 10.84Z" fill="#FFCB00" stroke="#1D1B13" stroke-width="0.17031"/>
<path fill-rule="evenodd" clip-rule="evenodd" d="M21.6789 9.18549C21.3505 9.26203 20.2041 11.0579 20.0987 11.5113C20.328 11.1992 21.5797 9.60943 21.6789 9.18549Z" fill="#1D1B13"/>
<path fill-rule="evenodd" clip-rule="evenodd" d="M18.1592 13.0245C18.2026 11.5761 17.9733 9.62708 19.4977 8.83807C20.0925 10.6693 19.0949 11.6762 18.1592 13.0245Z" fill="#FFCB00" stroke="#1D1B13" stroke-width="0.17031"/>
<path fill-rule="evenodd" clip-rule="evenodd" d="M18.8098 11.0991C18.5186 11.2934 17.8989 13.4308 17.9175 13.9019C18.0477 13.5191 18.8284 11.5407 18.8098 11.0991Z" fill="#1D1B13"/>
<path fill-rule="evenodd" clip-rule="evenodd" d="M18.4566 13.7782C18.8036 12.6124 19.0205 10.946 20.5387 10.8813C20.6688 12.5888 19.572 13.0304 18.4566 13.7782Z" fill="#FFCB00" stroke="#1D1B13" stroke-width="0.17448"/>
<path fill-rule="evenodd" clip-rule="evenodd" d="M19.4419 12.4593C19.1445 12.5064 18.1344 14.0019 18.0477 14.3965C18.2521 14.1374 19.3675 12.8243 19.4419 12.4593Z" fill="#1D1B13"/>
<path fill-rule="evenodd" clip-rule="evenodd" d="M18.8966 13.9372C20.1111 13.8724 21.7346 14.1256 22.3729 12.2826C20.8423 11.5937 20.012 12.8008 18.8966 13.9372Z" fill="#FFCB00" stroke="#1D1B13" stroke-width="0.219591"/>
<path fill-rule="evenodd" clip-rule="evenodd" d="M20.4953 13.1364C20.3404 13.4897 18.5682 14.2552 18.1716 14.2434C18.4876 14.0785 20.1297 13.1187 20.4953 13.1364Z" fill="#1D1B13"/>
<path fill-rule="evenodd" clip-rule="evenodd" d="M15.8169 15.4328C15.854 13.9784 15.6248 12.0294 17.1491 11.2404C17.744 13.0716 16.7526 14.0785 15.8169 15.4328Z" fill="#FFCB00" stroke="#1D1B13" stroke-width="0.17031"/>
<path fill-rule="evenodd" clip-rule="evenodd" d="M16.4613 13.5015C16.1701 13.6958 15.5504 15.8332 15.569 16.3042C15.6991 15.9215 16.4799 13.949 16.4613 13.5015Z" fill="#1D1B13"/>
<path fill-rule="evenodd" clip-rule="evenodd" d="M16.1081 16.1806C16.4551 15.0147 16.672 13.3543 18.1902 13.2836C18.3203 14.9912 17.2235 15.4328 16.1081 16.1806Z" fill="#FFCB00" stroke="#1D1B13" stroke-width="0.17448"/>
<path fill-rule="evenodd" clip-rule="evenodd" d="M17.0934 14.8616C16.7959 14.9087 15.7921 16.4102 15.7053 16.7988C15.9036 16.5397 17.019 15.2267 17.0934 14.8616Z" fill="#1D1B13"/>
<path fill-rule="evenodd" clip-rule="evenodd" d="M16.5481 16.3396C17.7626 16.2748 19.3861 16.528 20.0244 14.685C18.4938 13.9961 17.6635 15.2032 16.5481 16.3396Z" fill="#FFCB00" stroke="#1D1B13" stroke-width="0.219591"/>
<path fill-rule="evenodd" clip-rule="evenodd" d="M18.1468 15.5388C17.9919 15.8921 16.2197 16.6634 15.8231 16.6458C16.1391 16.4809 17.7812 15.5211 18.1468 15.5388Z" fill="#1D1B13"/>
<path fill-rule="evenodd" clip-rule="evenodd" d="M14.2615 18.5417C14.0384 17.2758 13.4993 15.6507 14.6829 14.5849C15.5194 16.0157 14.8316 17.1403 14.2615 18.5417Z" fill="#FFCB00" stroke="#1D1B13" stroke-width="0.161577"/>
<path fill-rule="evenodd" clip-rule="evenodd" d="M14.4846 16.7105C14.2677 16.9519 14.1066 18.9539 14.1996 19.3602C14.2491 18.9951 14.5776 17.0932 14.4846 16.7105Z" fill="#1D1B13"/>
<path fill-rule="evenodd" clip-rule="evenodd" d="M14.6457 19.1188C14.7449 18.0236 14.6395 16.528 15.9408 16.0923C16.3498 17.5349 15.4823 18.1885 14.6457 19.1188Z" fill="#FFCB00" stroke="#1D1B13" stroke-width="0.164012"/>
<path fill-rule="evenodd" clip-rule="evenodd" d="M15.2716 17.7292C15.0237 17.8469 14.4103 19.3955 14.4041 19.7488C14.5342 19.4779 15.2654 18.0648 15.2716 17.7292Z" fill="#1D1B13"/>
<path fill-rule="evenodd" clip-rule="evenodd" d="M15.0547 19.1423C16.0957 18.7832 17.5457 18.5947 17.775 16.8401C16.325 16.6281 15.8231 17.8764 15.0547 19.1423Z" fill="#FFCB00" stroke="#1D1B13" stroke-width="0.230334"/>
<path fill-rule="evenodd" clip-rule="evenodd" d="M16.3002 18.053C16.2259 18.3945 14.8254 19.5015 14.4846 19.5898C14.7263 19.366 15.978 18.1236 16.3002 18.053Z" fill="#1D1B13"/>
<path fill-rule="evenodd" clip-rule="evenodd" d="M13.3568 21.9392C12.8549 20.791 11.9688 19.4014 12.8673 17.9941C13.9951 19.1011 13.5861 20.4024 13.3568 21.9392Z" fill="#FFCB00" stroke="#1D1B13" stroke-width="0.170373"/>
<path fill-rule="evenodd" clip-rule="evenodd" d="M13.1523 20.1079C13.0036 20.4082 13.2949 22.3866 13.4808 22.7458C13.4498 22.3808 13.332 20.4377 13.1523 20.1079Z" fill="#1D1B13"/>
<path fill-rule="evenodd" clip-rule="evenodd" d="M13.8525 22.369C13.7038 21.2856 13.2639 19.8783 14.4164 19.0363C15.1352 20.2905 14.4474 21.2032 13.8525 22.369Z" fill="#FFCB00" stroke="#1D1B13" stroke-width="0.16896"/>
<path fill-rule="evenodd" clip-rule="evenodd" d="M14.1376 20.8263C13.9269 21.0206 13.6914 22.7105 13.7658 23.0579C13.8278 22.7517 14.212 21.1501 14.1376 20.8263Z" fill="#1D1B13"/>
<path fill-rule="evenodd" clip-rule="evenodd" d="M14.2553 22.2571C15.1724 21.5741 16.5233 20.9205 16.3498 19.16C14.9122 19.4249 14.7077 20.791 14.2553 22.2571Z" fill="#FFCB00" stroke="#1D1B13" stroke-width="0.228789"/>
<path fill-rule="evenodd" clip-rule="evenodd" d="M15.2034 20.8027C15.2096 21.156 14.1128 22.6811 13.803 22.8754C13.9889 22.581 14.9122 20.9794 15.2034 20.8027Z" fill="#1D1B13"/>
<path fill-rule="evenodd" clip-rule="evenodd" d="M12.7867 25.4367C12.1733 24.371 11.1508 23.1227 11.9006 21.5918C13.1275 22.528 12.8611 23.8764 12.7867 25.4367Z" fill="#FFCB00" stroke="#1D1B13" stroke-width="0.180084"/>
<path fill-rule="evenodd" clip-rule="evenodd" d="M12.4025 23.6467C12.2786 23.9706 12.7743 25.896 12.9912 26.2198C12.9231 25.8606 12.6132 23.9529 12.4025 23.6467Z" fill="#1D1B13"/>
<path fill-rule="evenodd" clip-rule="evenodd" d="M13.3258 25.79C13.0594 24.736 12.4831 23.4053 13.5427 22.3985C14.3855 23.5407 13.7968 24.5476 13.3258 25.79Z" fill="#FFCB00" stroke="#1D1B13" stroke-width="0.176692"/>
<path fill-rule="evenodd" clip-rule="evenodd" d="M13.4498 24.2238C13.2577 24.4416 13.1957 26.1551 13.3073 26.4907C13.332 26.1786 13.5551 24.5299 13.4498 24.2238Z" fill="#1D1B13"/>
<path fill-rule="evenodd" clip-rule="evenodd" d="M13.71 25.6251C14.5528 24.8126 15.8293 23.9647 15.4761 22.2454C14.0756 22.7164 14.0075 24.106 13.71 25.6251Z" fill="#FFCB00" stroke="#1D1B13" stroke-width="0.214621"/>
<path fill-rule="evenodd" clip-rule="evenodd" d="M14.5032 24.0412C14.5466 24.3886 13.6171 26.0667 13.3258 26.3023C13.4808 25.9843 14.2305 24.2591 14.5032 24.0412Z" fill="#1D1B13"/>
<path fill-rule="evenodd" clip-rule="evenodd" d="M12.8921 28.8283C12.1609 27.8803 11.0021 26.8204 11.5536 25.1776C12.8859 25.8901 12.7805 27.2738 12.8921 28.8283Z" fill="#FFCB00" stroke="#1D1B13" stroke-width="0.0942177"/>
<path fill-rule="evenodd" clip-rule="evenodd" d="M12.2972 27.1266C12.2166 27.4681 12.9355 29.2816 13.1957 29.5702C13.078 29.2286 12.5451 27.3916 12.2972 27.1266Z" fill="#1D1B13"/>
<path fill-rule="evenodd" clip-rule="evenodd" d="M13.4684 29.0874C13.0842 28.0864 12.353 26.8734 13.2763 25.6899C14.2491 26.6732 13.7906 27.7743 13.4684 29.0874Z" fill="#FFCB00" stroke="#1D1B13" stroke-width="0.19087"/>
<path fill-rule="evenodd" clip-rule="evenodd" d="M13.4064 27.5093C13.2453 27.7625 13.3878 29.4701 13.5365 29.7821C13.5241 29.4642 13.5489 27.7978 13.4064 27.5093Z" fill="#1D1B13"/>
<path fill-rule="evenodd" clip-rule="evenodd" d="M13.834 28.8518C14.5652 27.9039 15.7301 26.844 15.1724 25.2012C13.8402 25.9137 13.9455 27.2974 13.834 28.8518Z" fill="#FFCB00" stroke="#1D1B13" stroke-width="0.0942177"/>
<path fill-rule="evenodd" clip-rule="evenodd" d="M14.4288 27.1501C14.5094 27.4917 13.7906 29.3052 13.5303 29.5937C13.6481 29.2522 14.181 27.4151 14.4288 27.1501Z" fill="#1D1B13"/>
<path fill-rule="evenodd" clip-rule="evenodd" d="M22.8004 10.2866C22.7509 9.10895 23.7299 8.60257 25.1799 9.00885C24.2381 9.55645 24.6161 10.1983 22.8004 10.2866Z" fill="#FFCB00" stroke="#1D1B13" stroke-width="0.189991"/>
<path fill-rule="evenodd" clip-rule="evenodd" d="M23.7919 9.40334C23.5626 9.38568 22.5216 10.3572 22.3791 10.6398C22.5774 10.4809 23.668 9.6742 23.7919 9.40334Z" fill="#1D1B13"/>
<path fill-rule="evenodd" clip-rule="evenodd" d="M13.047 31.5545C12.2414 30.6536 10.9773 29.6644 11.4854 27.9922C12.9107 28.6222 12.8611 30.0059 13.047 31.5545Z" fill="#FFCB00" stroke="#1D1B13" stroke-width="0.200936"/>
<path fill-rule="evenodd" clip-rule="evenodd" d="M12.353 29.8881C12.2786 30.2355 13.1152 32.0078 13.4002 32.2728C13.2639 31.9431 12.6194 30.1413 12.353 29.8881Z" fill="#1D1B13"/>
<path fill-rule="evenodd" clip-rule="evenodd" d="M13.6666 31.7723C13.2143 30.8008 12.3963 29.635 13.3134 28.3985C14.3731 29.317 13.9393 30.4475 13.6666 31.7723Z" fill="#FFCB00" stroke="#1D1B13" stroke-width="0.195977"/>
<path fill-rule="evenodd" clip-rule="evenodd" d="M13.5303 30.2061C13.3692 30.4711 13.5923 32.1609 13.7658 32.4671C13.741 32.1492 13.6914 30.4887 13.5303 30.2061Z" fill="#1D1B13"/>
<path fill-rule="evenodd" clip-rule="evenodd" d="M14.0322 31.5192C14.7572 30.53 15.9284 29.3994 15.2716 27.792C13.9145 28.5869 14.0818 29.9588 14.0322 31.5192Z" fill="#FFCB00" stroke="#1D1B13" stroke-width="0.191013"/>
<path fill-rule="evenodd" clip-rule="evenodd" d="M14.5776 29.7821C14.6829 30.1178 14.0075 31.9784 13.7534 32.2787C13.8588 31.9313 14.3359 30.0648 14.5776 29.7821Z" fill="#1D1B13"/>
<path fill-rule="evenodd" clip-rule="evenodd" d="M14.0199 34.6516C13.0718 33.9156 11.6466 33.1914 11.9254 31.4308C13.4622 31.7723 13.6109 33.1561 14.0199 34.6516Z" fill="#FFCB00" stroke="#1D1B13" stroke-width="0.216685"/>
<path fill-rule="evenodd" clip-rule="evenodd" d="M13.078 33.1384C13.0532 33.4917 14.15 35.0814 14.4784 35.2934C14.2925 34.9872 13.3816 33.3327 13.078 33.1384Z" fill="#1D1B13"/>
<path fill-rule="evenodd" clip-rule="evenodd" d="M14.6767 34.7458C14.0818 33.8744 13.0842 32.8793 13.8402 31.472C15.0485 32.1727 14.7696 33.3798 14.6767 34.7458Z" fill="#FFCB00" stroke="#1D1B13" stroke-width="0.214621"/>
<path fill-rule="evenodd" clip-rule="evenodd" d="M14.3173 33.2208C14.1934 33.5093 14.6643 35.1403 14.875 35.4053C14.8068 35.0991 14.5218 33.4622 14.3173 33.2208Z" fill="#1D1B13"/>
<path fill-rule="evenodd" clip-rule="evenodd" d="M15.0175 34.422C15.6186 33.2974 16.6472 31.949 15.7487 30.4887C14.4784 31.5427 14.8502 32.8675 15.0175 34.422Z" fill="#FFCB00" stroke="#1D1B13" stroke-width="0.179751"/>
<path fill-rule="evenodd" clip-rule="evenodd" d="M15.3273 32.5908C15.4761 32.9028 15.0609 34.8754 14.8378 35.2228C14.8998 34.8577 15.1229 32.9146 15.3273 32.5908Z" fill="#1D1B13"/>
<path fill-rule="evenodd" clip-rule="evenodd" d="M15.8912 37.5898C14.8254 37.1482 13.301 36.8479 13.2267 35.0579C14.782 34.952 15.2034 36.2532 15.8912 37.5898Z" fill="#FFCB00" stroke="#1D1B13" stroke-width="0.236738"/>
<path fill-rule="evenodd" clip-rule="evenodd" d="M14.6767 36.3945C14.7263 36.7419 16.1081 37.9725 16.4613 38.0844C16.2259 37.843 15.0113 36.4946 14.6767 36.3945Z" fill="#1D1B13"/>
<path fill-rule="evenodd" clip-rule="evenodd" d="M16.5481 37.4956C15.8045 36.8185 14.6333 36.1355 15.0919 34.5574C16.4055 34.8931 16.3684 36.1413 16.5481 37.4956Z" fill="#FFCB00" stroke="#1D1B13" stroke-width="0.238161"/>
<path fill-rule="evenodd" clip-rule="evenodd" d="M15.8974 36.1178C15.8355 36.4357 16.61 37.8842 16.8765 38.0844C16.7464 37.8077 16.1453 36.2944 15.8974 36.1178Z" fill="#1D1B13"/>
<path fill-rule="evenodd" clip-rule="evenodd" d="M16.8207 37.0834C17.1739 35.8234 17.9113 34.2218 16.7526 33.056C15.7239 34.4397 16.3436 35.6232 16.8207 37.0834Z" fill="#FFCB00" stroke="#1D1B13" stroke-width="0.1637"/>
<path fill-rule="evenodd" clip-rule="evenodd" d="M16.7588 35.2228C16.9633 35.4818 16.9447 37.5132 16.8021 37.9136C16.7836 37.5427 16.6224 35.5937 16.7588 35.2228Z" fill="#1D1B13"/>
<path fill-rule="evenodd" clip-rule="evenodd" d="M17.2049 39.9981C16.1391 39.5565 14.6147 39.2562 14.5404 37.4662C16.0957 37.3661 16.5171 38.6673 17.2049 39.9981Z" fill="#FFCB00" stroke="#1D1B13" stroke-width="0.236738"/>
<path fill-rule="evenodd" clip-rule="evenodd" d="M15.9904 38.8027C16.04 39.1501 17.4156 40.3808 17.775 40.4926C17.5395 40.2512 16.325 38.9028 15.9904 38.8027Z" fill="#1D1B13"/>
<path fill-rule="evenodd" clip-rule="evenodd" d="M17.8617 39.9038C17.112 39.2267 15.947 38.5437 16.4055 36.9657C17.7192 37.3072 17.682 38.5496 17.8617 39.9038Z" fill="#FFCB00" stroke="#1D1B13" stroke-width="0.238161"/>
<path fill-rule="evenodd" clip-rule="evenodd" d="M17.2111 38.526C17.1492 38.844 17.9237 40.2983 18.1902 40.4926C18.0601 40.2159 17.459 38.7085 17.2111 38.526Z" fill="#1D1B13"/>
<path fill-rule="evenodd" clip-rule="evenodd" d="M18.1344 39.4976C18.4876 38.2316 19.225 36.6301 18.0662 35.4642C17.0376 36.8479 17.6573 38.0314 18.1344 39.4976Z" fill="#FFCB00" stroke="#1D1B13" stroke-width="0.1637"/>
<path fill-rule="evenodd" clip-rule="evenodd" d="M18.0724 37.631C18.2769 37.8901 18.2583 39.9274 18.1158 40.3278C18.0972 39.9568 17.9361 38.002 18.0724 37.631Z" fill="#1D1B13"/>
<path fill-rule="evenodd" clip-rule="evenodd" d="M19.5039 42.4475C18.3823 42.2944 16.8393 42.3945 16.4427 40.6693C17.9485 40.1629 18.5868 41.3229 19.5039 42.4475Z" fill="#FFCB00" stroke="#1D1B13" stroke-width="0.226767"/>
<path fill-rule="evenodd" clip-rule="evenodd" d="M18.1034 41.5937C18.2088 41.9235 19.7827 42.7655 20.1545 42.7772C19.8757 42.6065 18.4504 41.6055 18.1034 41.5937Z" fill="#1D1B13"/>
<path fill-rule="evenodd" clip-rule="evenodd" d="M20.1297 42.1826C19.2746 41.7115 18.0105 41.3523 18.1778 39.6919C19.5224 39.6801 19.7083 40.9048 20.1297 42.1826Z" fill="#FFCB00" stroke="#1D1B13" stroke-width="0.227069"/>
<path fill-rule="evenodd" clip-rule="evenodd" d="M19.2436 41.0049C19.2436 41.3346 20.2599 42.5476 20.5511 42.6713C20.3776 42.4298 19.5225 41.1168 19.2436 41.0049Z" fill="#1D1B13"/>
<path fill-rule="evenodd" clip-rule="evenodd" d="M20.3156 41.7115C20.4395 40.3867 20.8671 38.632 19.5224 37.7959C18.7727 39.4151 19.5906 40.4102 20.3156 41.7115Z" fill="#FFCB00" stroke="#1D1B13" stroke-width="0.164885"/>
<path fill-rule="evenodd" clip-rule="evenodd" d="M19.9252 39.9097C20.1731 40.104 20.5201 42.1001 20.4519 42.524C20.3714 42.1708 19.8571 40.3101 19.9252 39.9097Z" fill="#1D1B13"/>
<path fill-rule="evenodd" clip-rule="evenodd" d="M20.1731 41.8469C21.1831 42.948 22.3481 43.8724 23.8105 44.4259L24.4116 46.0393C22.4906 45.0501 20.7556 43.7959 19.3675 42.0295L20.1731 41.8469Z" fill="#1D1B13" stroke="#1D1B13" stroke-width="0.0942177"/>
<path fill-rule="evenodd" clip-rule="evenodd" d="M8.36235 48.4181C12.5636 49.9667 15.7673 51.2326 19.3737 50.6615L19.95 46.9696C16.1825 47.2758 13.1151 45.5152 9.03158 44.0491L12.3282 47.5584L8.36235 48.4181Z" fill="white" stroke="#1B1918" stroke-width="0.749164"/>
<path fill-rule="evenodd" clip-rule="evenodd" d="M16.2878 45.7213C20.7865 45.5093 24.74 46.0805 27.9746 47.6997V51.4446C24.5045 50.0314 20.6502 49.2954 16.2878 49.4721V45.7213Z" fill="white" stroke="#1B1918" stroke-width="0.360084"/>
<path fill-rule="evenodd" clip-rule="evenodd" d="M51.6766 48.4181C47.4815 49.9667 44.2717 51.2326 40.6715 50.6615L40.0952 46.9696C43.8565 47.2758 46.93 45.5152 51.0136 44.0491L47.717 47.5584L51.6766 48.4181Z" fill="white" stroke="#1B1918" stroke-width="0.749164"/>
<path fill-rule="evenodd" clip-rule="evenodd" d="M43.7512 45.7213C39.2586 45.5093 35.3052 46.0805 32.0706 47.6997V51.4446C35.5407 50.0314 39.3888 49.2954 43.7512 49.4721V45.7213Z" fill="white" stroke="#1B1918" stroke-width="0.360084"/>
<path fill-rule="evenodd" clip-rule="evenodd" d="M18.3699 47.6879L19.0887 47.7586C19.0825 47.8705 19.1011 47.9588 19.1383 48.0236C19.2002 48.1295 19.2994 48.1943 19.4419 48.2179C19.5534 48.2355 19.634 48.2238 19.7022 48.1884C19.7703 48.1472 19.8075 48.1001 19.8199 48.0353C19.8323 47.9765 19.8137 47.9176 19.7641 47.8587C19.7207 47.8057 19.5968 47.7409 19.4047 47.6644C19.0887 47.5407 18.8718 47.4112 18.7541 47.2758C18.6363 47.1345 18.593 46.9755 18.6239 46.7988C18.6425 46.6752 18.6983 46.5692 18.7912 46.4809C18.8842 46.3867 19.0081 46.3219 19.163 46.2807C19.318 46.2453 19.5224 46.2512 19.7703 46.2925C20.0801 46.3396 20.3094 46.4338 20.4519 46.5692C20.5945 46.7046 20.6564 46.893 20.644 47.1345L19.9376 47.0638C19.9376 46.9519 19.9066 46.8754 19.8571 46.8165C19.8075 46.7576 19.7269 46.7223 19.6216 46.7046C19.5348 46.6928 19.4667 46.6987 19.4171 46.7282C19.3675 46.7517 19.3365 46.7929 19.3242 46.8459C19.318 46.8813 19.3304 46.9166 19.3613 46.9519C19.3923 46.9872 19.4729 47.0285 19.5968 47.0756C19.9128 47.1933 20.1359 47.2993 20.266 47.3935C20.3962 47.4819 20.4829 47.5878 20.5263 47.6997C20.5759 47.8116 20.5883 47.9293 20.5635 48.053C20.5387 48.2002 20.4705 48.3297 20.359 48.4416C20.2536 48.5535 20.1173 48.6241 19.95 48.6654C19.7827 48.7066 19.5844 48.7066 19.3489 48.6654C18.94 48.6006 18.6673 48.4769 18.5372 48.3003C18.4071 48.1295 18.3513 47.9235 18.3699 47.6879ZM22.3605 48.7242L21.5116 48.5829L21.3257 48.948L20.5635 48.8243L21.8834 46.6693L22.6951 46.8047L23.197 49.2483L22.4101 49.1246L22.3605 48.7242ZM22.2923 48.2002L22.1746 47.3288L21.7594 48.1119L22.2923 48.2002ZM23.4449 46.9225L25.7129 47.2934L25.6137 47.8587L24.8515 47.735L24.5417 49.4662L23.7919 49.3484L24.1017 47.6173L23.3396 47.4936L23.4449 46.9225Z" fill="#1B1918"/>
<path fill-rule="evenodd" clip-rule="evenodd" d="M34.2704 47.3405L35.5159 47.1521C35.7886 47.1168 35.9992 47.1462 36.1542 47.2463C36.3091 47.3464 36.4082 47.5113 36.4454 47.7409C36.4826 47.9706 36.4392 48.1649 36.3153 48.318C36.1913 48.471 35.9745 48.5711 35.677 48.6182L35.268 48.6771L35.4106 49.5309L34.6546 49.6428L34.2704 47.3405ZM35.1875 48.212L35.3734 48.1825C35.5159 48.159 35.615 48.1236 35.6646 48.0648C35.7142 48.0118 35.7328 47.9411 35.7204 47.8705C35.708 47.7998 35.6708 47.7409 35.615 47.6997C35.5531 47.6526 35.4539 47.6467 35.3176 47.6644L35.1007 47.6997L35.1875 48.212ZM38.2424 48.7125L37.3935 48.842L37.3377 49.2424L36.5693 49.3543L37.096 46.9166L37.914 46.7929L39.2091 48.9598L38.4283 49.0775L38.2424 48.7125ZM38.0007 48.2414L37.598 47.4524L37.4678 48.318L38.0007 48.2414ZM39.0542 46.6222L40.0394 46.4691L40.6591 47.8175L40.8016 46.3572L41.7807 46.21L42.1649 48.5123L41.5576 48.6065L41.2602 46.8459L41.0805 48.6771L40.529 48.7596L39.7606 47.0756L40.0518 48.8302L39.4384 48.9244L39.0542 46.6222Z" fill="#1B1918"/>
</svg>
