<svg width="60" height="60" viewBox="0 0 60 60" fill="none" xmlns="http://www.w3.org/2000/svg">
<path fill-rule="evenodd" clip-rule="evenodd" d="M28.9049 2.17364C27.4854 2.66266 25.7745 3.34791 24.6343 3.88417C24.3658 4.01041 23.9815 4.18958 23.7801 4.28217C17.6356 7.10929 10.5476 12.2908 5.04519 17.9781C3.57714 19.4954 2.93761 20.2057 1.63994 21.7601L1.28014 22.1912L1.35121 23.2768C1.71544 28.8422 3.07153 35.2904 4.9886 40.5735C5.14631 41.008 5.35557 41.5862 5.45365 41.8581C6.37123 44.4038 8.69188 49.4983 10.0216 51.8865C10.1474 52.1124 10.5078 52.7665 10.8225 53.3401C11.1371 53.9136 11.6426 54.8093 11.9458 55.3304L12.4969 56.278L12.8916 56.3908C14.1699 56.7556 17.6151 57.5058 18.8994 57.6987C19.1678 57.739 19.7032 57.8264 20.0891 57.8927C22.2316 58.261 25.6911 58.5816 29.2557 58.7423L30.0336 58.7774V30.3044C30.0336 7.56671 30.0182 1.8322 29.9574 1.83441C29.9154 1.83599 29.4418 1.98862 28.9049 2.17364ZM29.9575 32.9759L29.9728 50.8798L29.3779 50.8617L28.7829 50.8436L28.7671 47.573C28.7549 45.0196 28.7347 44.3025 28.6755 44.3032C28.6339 44.3036 28.2567 44.361 27.8373 44.4307C18.7777 45.9353 15.4331 43.7434 12.0305 34.071C11.8302 33.5014 11.6789 33.0222 11.6945 33.0061C11.8601 32.8343 17.7068 32.9459 19.0824 33.147C23.9433 33.8574 27.0016 36.4962 28.6783 41.4268C28.7257 41.5663 28.744 40.9548 28.7475 39.1142L28.7524 36.612L28.4016 36.5327C26.4827 36.0991 24.2437 34.9806 22.7971 33.7332C18.4827 30.0129 18.3199 23.3759 22.4254 18.5797C24.2309 16.4704 27.2205 15.0136 29.6371 15.0656L29.9421 15.0721L29.9575 32.9759ZM30.0946 32.9557V50.8752H30.6742H31.2538V47.5888C31.2538 44.5005 31.2602 44.3025 31.3606 44.3038C31.4193 44.3046 31.8242 44.362 32.2605 44.4313C35.8053 44.9949 37.8906 45.0181 39.7951 44.5157C43.5649 43.5209 45.8497 40.5905 48.2552 33.6646C48.3737 33.3235 48.4524 33.0253 48.43 33.0021C48.3522 32.9214 42.7338 32.9536 41.9 33.0396C36.6318 33.5826 33.3434 36.0771 31.5933 40.858C31.2704 41.7402 31.2857 41.8188 31.2683 39.1833C31.2495 36.3363 31.1957 36.6354 31.7523 36.4962C34.5595 35.7937 37.0978 34.26 38.5977 32.36C43.6096 26.0109 38.8606 15.6717 30.659 15.0768L30.0946 15.0359V32.9557ZM52.8977 23.6015C50.5298 24.5394 51.1277 28.233 53.6443 28.2132C55.998 28.1949 56.7113 24.7604 54.5819 23.6982C54.2083 23.5117 53.2615 23.4574 52.8977 23.6015Z" fill="#FBFBFB"/>
<path fill-rule="evenodd" clip-rule="evenodd" d="M29.3712 0.187552C29.0907 0.289937 28.8299 0.398958 28.7916 0.429926C28.7533 0.460737 28.4611 0.580186 28.1423 0.695211C27.8235 0.810078 27.5484 0.926367 27.5309 0.953386C27.5133 0.980404 27.2668 1.09116 26.9831 1.19955C26.6994 1.30794 26.453 1.41775 26.4354 1.44351C26.4179 1.46926 26.2663 1.54321 26.0985 1.60751C25.4998 1.8374 22.4768 3.32452 22.4053 3.42437C22.3873 3.44934 22.2637 3.51696 22.1307 3.57432C21.858 3.69218 19.8311 4.80467 19.784 4.8625C19.7672 4.88304 19.5751 4.99633 19.3569 5.1142C19.1388 5.23223 18.9467 5.34852 18.9299 5.37269C18.9131 5.39686 18.7346 5.50731 18.5333 5.61791C18.332 5.72867 18.0986 5.87087 18.0147 5.93391C17.8689 6.04356 17.1589 6.48391 16.79 6.69342C16.6937 6.74809 16.3878 6.95255 16.1099 7.14799C15.8321 7.34328 15.5225 7.54663 15.4217 7.59972C15.321 7.65281 15.1863 7.75614 15.1224 7.82914C15.0585 7.90229 14.9844 7.96202 14.9576 7.96202C14.9046 7.96202 14.5392 8.2055 14.2932 8.40458C14.0465 8.6043 13.7264 8.83861 13.5382 8.95743C13.4416 9.01826 13.2357 9.1682 13.0806 9.2905C12.9253 9.41279 12.7161 9.567 12.6154 9.63304C12.5147 9.69909 12.3965 9.80511 12.3526 9.86878C12.3088 9.93246 12.2394 9.98444 12.1984 9.98444C12.1575 9.98444 12.0338 10.0698 11.9235 10.174C11.8134 10.2783 11.7083 10.3636 11.69 10.3636C11.6717 10.3636 11.5528 10.449 11.4257 10.5532C11.2987 10.6575 11.1762 10.7428 11.1538 10.7428C11.1312 10.7428 11.0435 10.8282 10.9588 10.9324C10.874 11.0367 10.7662 11.1221 10.7192 11.1221C10.6721 11.1221 10.599 11.1813 10.5568 11.2537C10.5147 11.3262 10.3776 11.4403 10.2522 11.5073C10.1268 11.5744 9.97948 11.7 9.92488 11.7864C9.87012 11.8729 9.78989 11.9437 9.74642 11.9437C9.7028 11.9437 9.59802 12.029 9.51321 12.1333C9.42856 12.2375 9.34025 12.3229 9.31692 12.3229C9.26551 12.3229 8.41748 13.0634 8.1617 13.3317C8.06103 13.4372 7.95259 13.5237 7.92071 13.5237C7.88884 13.5237 7.77917 13.6063 7.67667 13.7073C7.57433 13.8082 7.27172 14.0997 7.00404 14.3551C6.73652 14.6104 6.40066 14.9402 6.25775 15.0879C6.11483 15.2356 5.9768 15.3565 5.95117 15.3565C5.9254 15.3566 5.49436 15.7833 4.99317 16.3045C4.49198 16.8259 4.06644 17.2538 4.04752 17.2555C4.02861 17.2571 3.93237 17.3637 3.83369 17.4925C3.73516 17.6211 3.54298 17.8259 3.40662 17.9476C3.27042 18.0691 2.96674 18.3882 2.73185 18.6568C2.49697 18.9253 2.1062 19.352 1.86338 19.605C1.62057 19.858 1.42152 20.0882 1.42106 20.1166C1.42061 20.145 1.33092 20.2645 1.22187 20.3822C0.965476 20.6587 0.537341 21.1376 0.237327 21.4833L0 21.7567L0.0393511 22.3645C0.123087 23.6568 0.269357 25.1899 0.320452 25.3106C0.350042 25.3801 0.391376 25.6219 0.412577 25.8478C0.491584 26.6931 0.752247 28.6016 0.805173 28.7234C0.835373 28.7929 0.946715 29.4006 1.05241 30.0737C1.15827 30.7468 1.2693 31.344 1.29935 31.4009C1.3294 31.4578 1.42732 31.9024 1.51685 32.3891C1.60653 32.8757 1.70018 33.3023 1.72504 33.3371C1.74991 33.3718 1.80329 33.5567 1.84371 33.7479C2.03284 34.6426 2.16019 35.1806 2.21053 35.2963C2.24057 35.3658 2.35405 35.7924 2.4625 36.2443C2.57079 36.6962 2.6803 37.0943 2.70562 37.1291C2.73094 37.1639 2.83877 37.5336 2.94539 37.9507C3.052 38.3678 3.16029 38.7376 3.18607 38.7723C3.21185 38.8071 3.31114 39.1057 3.40662 39.4359C3.5021 39.7662 3.59788 40.0506 3.61954 40.0679C3.64135 40.0853 3.74964 40.4124 3.86053 40.7947C3.97141 41.1771 4.08032 41.5042 4.10289 41.5215C4.12531 41.5389 4.20813 41.7665 4.28683 42.0272C4.36569 42.2879 4.49167 42.6434 4.56702 42.8172C4.64221 42.991 4.77445 43.343 4.86078 43.5994C4.94711 43.8559 5.0461 44.1011 5.08072 44.1444C5.11534 44.1877 5.21448 44.4327 5.30096 44.6892C5.38745 44.9456 5.47896 45.1696 5.50443 45.1872C5.5299 45.2046 5.60845 45.3894 5.67892 45.598C5.8833 46.2033 5.9588 46.388 6.00181 46.388C6.02377 46.388 6.131 46.644 6.2399 46.9568C6.3488 47.2696 6.45801 47.5256 6.48272 47.5256C6.50727 47.5256 6.6177 47.7674 6.72798 48.0628C6.83825 48.3583 6.94761 48.6 6.9711 48.6C6.99444 48.6 7.09098 48.7991 7.18555 49.0424C7.28011 49.2857 7.37864 49.4848 7.40472 49.4848C7.43065 49.4848 7.47062 49.5488 7.49365 49.627C7.51668 49.7052 7.60087 49.9193 7.68079 50.1029C7.76072 50.2864 7.82615 50.4641 7.82615 50.4979C7.82615 50.5316 7.84948 50.5592 7.87816 50.5592C7.90668 50.5592 8.02123 50.7654 8.13242 51.0174C8.24376 51.2695 8.35312 51.4899 8.37539 51.5072C8.39765 51.5246 8.50595 51.7379 8.61592 51.9813C8.72589 52.2246 8.83753 52.4379 8.86407 52.4553C8.89046 52.4726 8.98716 52.6575 9.07883 52.8661C9.17049 53.0746 9.26551 53.2595 9.29007 53.2769C9.31447 53.2942 9.42246 53.4927 9.52984 53.718C9.63722 53.9433 9.74459 54.1424 9.76854 54.1604C9.79233 54.1784 9.90505 54.3781 10.0188 54.6041C10.1328 54.83 10.245 55.0291 10.2684 55.0465C10.2917 55.0639 10.3998 55.256 10.5086 55.4734C10.6173 55.6908 10.73 55.8839 10.7589 55.9025C10.7879 55.921 10.8833 56.0841 10.9709 56.2648C11.0586 56.4457 11.1487 56.6082 11.1713 56.6259C11.1937 56.6436 11.2491 56.726 11.2942 56.809C11.3392 56.8919 11.43 57.0589 11.4957 57.1801C11.5615 57.3015 11.6525 57.4393 11.698 57.4863C11.7436 57.5336 11.7902 57.6009 11.8015 57.6358C11.813 57.6707 12.2341 57.7864 12.7374 57.8927C13.2407 57.9992 13.696 58.1106 13.749 58.1403C13.802 58.17 14.3648 58.2884 14.9996 58.4034C15.6346 58.5184 16.1677 58.6304 16.1845 58.6524C16.2186 58.6969 18.6473 59.0913 18.8879 59.0913C18.9724 59.0913 19.0508 59.1158 19.0621 59.1457C19.0733 59.1755 19.755 59.277 20.5771 59.371C21.3992 59.465 22.168 59.5679 22.2854 59.5996C23.5451 59.9395 30.2998 60.1201 33.9077 59.9104C35.5457 59.8151 37.313 59.6595 37.4463 59.5987C37.5134 59.568 37.7467 59.5258 37.9648 59.505C38.6938 59.4353 40.2512 59.2116 40.3747 59.1588C40.4418 59.1302 41.0255 59.018 41.6719 58.9095C42.3182 58.8011 42.8947 58.6854 42.9531 58.6527C43.0114 58.62 43.4915 58.5066 44.0199 58.4005C44.5482 58.2945 45.0287 58.1806 45.0876 58.1474C45.1464 58.1142 45.5788 57.9961 46.0486 57.8848C46.5184 57.7734 46.9165 57.6633 46.9332 57.6401C46.95 57.6167 47.1765 57.5464 47.4366 57.4838C47.6966 57.4212 47.9094 57.3522 47.9096 57.3301C47.9096 57.3081 48.0194 57.1621 48.1534 57.0057C48.2875 56.8493 48.3973 56.6902 48.3973 56.6521C48.3975 56.614 48.4557 56.5287 48.5268 56.4625C48.5979 56.3963 48.7483 56.1999 48.8611 56.0261C49.2472 55.4309 49.4882 55.0781 49.5737 54.9833C49.6207 54.9311 49.7235 54.7676 49.8022 54.6199C49.8808 54.4722 49.9656 54.3513 49.9904 54.3513C50.0154 54.3513 50.0791 54.266 50.1318 54.1617C50.1846 54.0574 50.2709 53.8868 50.3237 53.7825C50.3765 53.6782 50.4408 53.5929 50.4666 53.5929C50.4924 53.5929 50.5879 53.4513 50.6788 53.2781C50.7697 53.105 50.881 52.9252 50.926 52.8785C50.971 52.8321 51.0825 52.6395 51.1739 52.4508C51.2651 52.262 51.3848 52.0549 51.4397 51.9904C51.5357 51.8778 51.6731 51.6362 52.1459 50.7488C52.2662 50.5229 52.4715 50.139 52.6021 49.8956C52.7327 49.6523 52.9415 49.2399 53.0661 48.9792C53.1907 48.7185 53.311 48.491 53.3336 48.4736C53.3562 48.4562 53.4526 48.2572 53.5479 48.0312C53.6432 47.8053 53.7549 47.5777 53.7962 47.5256C53.8375 47.4735 53.9455 47.2264 54.0363 46.9766C54.1269 46.7268 54.2227 46.5135 54.249 46.5026C54.2753 46.4916 54.3851 46.2444 54.4931 45.953C54.6009 45.6617 54.7251 45.363 54.769 45.2894C54.8128 45.2158 54.9263 44.9281 55.021 44.65C55.1157 44.3719 55.2132 44.13 55.2374 44.1123C55.2617 44.0946 55.3422 43.8955 55.4163 43.6699C55.4903 43.4443 55.6146 43.1131 55.6922 42.9341C55.7699 42.7549 55.8942 42.3994 55.9686 42.1441C56.0429 41.8886 56.124 41.6653 56.1489 41.648C56.1737 41.6306 56.2851 41.3035 56.3963 40.9211C56.5075 40.5388 56.6155 40.2117 56.6362 40.1943C56.6569 40.177 56.7637 39.8215 56.8734 39.4043C56.9832 38.9872 57.0939 38.6175 57.1195 38.5827C57.1452 38.548 57.2428 38.2067 57.3363 37.8243C57.4298 37.4419 57.5259 37.1007 57.5498 37.0659C57.5736 37.0311 57.6364 36.8036 57.6894 36.5603C57.7421 36.317 57.8321 35.9046 57.889 35.6439C57.9461 35.3832 58.0135 35.1414 58.0391 35.1067C58.0647 35.0719 58.1715 34.5742 58.2766 34.0007C58.3815 33.4271 58.491 32.9136 58.5199 32.8596C58.5487 32.8055 58.6603 32.2083 58.7679 31.5324C58.8756 30.8564 58.9857 30.2587 59.0127 30.2039C59.0397 30.1492 59.1361 29.5235 59.2267 28.8135C59.3174 28.1036 59.4155 27.4657 59.4446 27.3962C59.4978 27.2693 59.7686 24.6315 59.8435 23.5094C59.8656 23.1791 59.9048 22.8805 59.9307 22.8458C60.0157 22.732 60.0259 21.784 59.9425 21.7552C59.9011 21.7409 59.8673 21.7034 59.8673 21.672C59.8673 21.6405 59.8192 21.5533 59.7605 21.4781C59.5467 21.2041 58.4049 19.8616 58.1285 19.559C58.0614 19.4855 57.9322 19.3239 57.8413 19.1999C57.7504 19.0758 57.2902 18.5657 56.8185 18.0661C55.6099 16.7859 55.5356 16.7035 55.5356 16.6406C55.5356 16.6098 55.4601 16.5382 55.3678 16.4815C55.2755 16.4249 54.7815 15.9566 54.2699 15.4409C53.7584 14.9251 53.2151 14.3895 53.0629 14.2505C52.9105 14.1114 52.6594 13.8746 52.5049 13.724C52.3504 13.5734 52.0562 13.3082 51.8512 13.1345C51.3227 12.6867 51.0403 12.4415 50.8435 12.2597C50.7494 12.1728 50.5144 11.9737 50.3211 11.8173C50.1279 11.6608 49.8931 11.4546 49.7996 11.3591C49.7061 11.2635 49.6064 11.1851 49.578 11.1849C49.5495 11.1848 49.427 11.0923 49.3058 10.9795C49.0817 10.771 49.0089 10.7154 48.6568 10.4823C48.5477 10.4103 48.4585 10.3279 48.4585 10.2997C48.4585 10.2712 48.3281 10.1597 48.1687 10.0516C48.0093 9.94336 47.7212 9.7348 47.5285 9.58785C47.3359 9.44107 47.0614 9.2363 46.9184 9.13313C46.7755 9.02979 46.5686 8.86626 46.4583 8.76972C46.348 8.67303 46.2217 8.59403 46.1773 8.59403C46.1331 8.59403 46.0291 8.52893 45.9463 8.4493C45.8633 8.36982 45.6603 8.21435 45.4949 8.10406C45.3298 7.99378 45.1533 7.86358 45.103 7.8146C45.0526 7.76562 44.9192 7.67683 44.8063 7.61726C44.6272 7.52277 43.9023 7.03897 43.7302 6.8993C43.6967 6.87212 43.4909 6.75157 43.2728 6.63165C43.0549 6.51172 42.849 6.37963 42.8153 6.33792C42.7817 6.29637 42.6121 6.1894 42.4387 6.10013C42.2651 6.01102 42.1141 5.917 42.1031 5.89141C42.092 5.86581 41.9225 5.76185 41.7262 5.66041C41.5301 5.55897 41.3358 5.44095 41.2946 5.39813C41.2533 5.35547 41.0431 5.22907 40.8276 5.11736C40.612 5.00565 40.3945 4.87751 40.3442 4.8328C40.2939 4.78793 39.7173 4.46608 39.063 4.11737C38.4087 3.76882 37.7361 3.40984 37.5683 3.31977C37.0674 3.05086 35.8324 2.46356 35.7676 2.46356C35.7345 2.46356 35.7075 2.43765 35.7075 2.40589C35.7075 2.37414 35.5085 2.27001 35.2652 2.17442C35.0219 2.07883 34.8071 1.97629 34.7879 1.94643C34.7548 1.89492 34.2857 1.69536 33.9228 1.57844C33.8305 1.54858 33.7184 1.4868 33.6737 1.44098C33.6292 1.395 33.3478 1.27223 33.0486 1.16795C32.7493 1.06367 32.4885 0.955914 32.4688 0.928421C32.4493 0.900929 32.2043 0.793646 31.9245 0.689997C31.6447 0.586506 31.3857 0.475905 31.3491 0.444463C31.248 0.357404 30.1727 -0.0014178 30.0174 4.21478e-06C29.9424 0.000636221 29.6517 0.0850091 29.3712 0.187552ZM30.0946 8.37282V14.9773H30.4868C34.9815 14.9773 39.4619 19.0732 40.4903 24.1224C41.3474 28.3305 39.903 31.9517 36.3167 34.5861C36.2332 34.6472 36.371 34.5861 36.6226 34.4502C38.707 33.3238 40.7152 32.9323 44.6759 32.88C47.6849 32.8403 48.6003 32.8864 48.5445 33.0751C48.2657 34.0144 47.2731 36.5499 46.6726 37.8559C44.1331 43.3792 40.6941 45.4602 35.0843 44.8682C33.3661 44.6868 32.691 44.6021 32.0651 44.489C31.6891 44.4212 31.3668 44.3656 31.3487 44.3656C31.3307 44.3656 31.3089 45.8516 31.3002 47.6678L31.2843 50.97L30.6895 50.9881L30.0946 51.0062V54.9223V58.8385L29.8048 58.8379C29.1473 58.8366 26.8001 58.7082 26.4035 58.6518C26.1687 58.6184 25.5235 58.5595 24.9698 58.5208C23.6342 58.4272 22.3197 58.2912 21.6448 58.1763C21.3428 58.125 20.5582 58.0106 19.9013 57.9221C19.2442 57.8338 18.6128 57.7331 18.4981 57.6985C18.3832 57.6639 17.8674 57.5646 17.3517 57.4778C16.8362 57.3912 16.1224 57.2493 15.7655 57.1629C15.4087 57.0763 14.8285 56.9367 14.4762 56.8524C14.1239 56.7684 13.5278 56.6214 13.1515 56.5262L12.4674 56.353L12.1201 55.7471C11.9292 55.414 11.7103 55.0417 11.6338 54.9201C11.3328 54.4415 10.0487 52.0901 9.45937 50.9384C8.67647 49.4082 8.29806 48.6582 8.19998 48.442C8.13684 48.303 7.94466 47.8852 7.77261 47.5138C7.60072 47.1423 7.46009 46.8176 7.46009 46.792C7.46009 46.7664 7.42318 46.7007 7.37803 46.6457C7.33273 46.5909 7.22048 46.3469 7.12835 46.1036C7.03623 45.8603 6.93983 45.6328 6.91406 45.598C6.85152 45.5135 6.28459 44.1627 6.14473 43.7652C6.08356 43.5914 5.99891 43.3923 5.95666 43.3228C5.91426 43.2531 5.7985 42.9687 5.6992 42.6908C5.38455 41.8093 5.08057 40.9908 4.99515 40.7947C4.94955 40.6905 4.85071 40.4061 4.77552 40.1627C4.70017 39.9194 4.58944 39.5924 4.52919 39.4359C4.31032 38.8662 3.41791 35.8714 3.27804 35.237C3.22496 34.9958 3.15846 34.7539 3.13025 34.6995C3.10218 34.645 3.00533 34.2451 2.91503 33.8108C2.82489 33.3764 2.7102 32.886 2.66032 32.721C2.61044 32.5559 2.49087 32.0013 2.39478 31.4886C2.29869 30.9757 2.19161 30.439 2.15699 30.2955C2.12237 30.1522 2.01209 29.4472 1.91189 28.7291C1.81183 28.011 1.71727 27.4025 1.70201 27.3769C1.66892 27.3215 1.50968 25.8609 1.42503 24.8366C1.24749 22.6908 1.22644 22.361 1.25878 22.2275C1.4203 21.5614 6.77511 15.93 8.98533 14.1021C9.13633 13.9773 9.37106 13.7747 9.50711 13.652C9.64301 13.5292 9.85975 13.3436 9.98878 13.2393C10.1178 13.135 10.3224 12.9617 10.4433 12.8541C10.5641 12.7463 10.7892 12.5614 10.9436 12.4433C11.0978 12.3249 11.3827 12.1001 11.5767 11.9437C11.7709 11.7872 12.0051 11.6024 12.0976 11.5329C12.19 11.4633 12.5228 11.2069 12.8372 10.9631C13.1514 10.7193 13.4884 10.4633 13.5861 10.3943C13.6838 10.3252 13.9213 10.1551 14.1139 10.016C14.5219 9.72168 16.0966 8.6321 16.6725 8.24563C16.8906 8.09932 17.4534 7.74366 17.9232 7.45531C18.393 7.16711 18.8477 6.88176 18.9335 6.82156C19.0196 6.76121 19.2529 6.6228 19.4521 6.51378C19.6515 6.40476 20.0067 6.20346 20.2416 6.06632C20.8114 5.73341 24.0777 4.04358 24.1512 4.04358C24.183 4.04358 24.308 3.9886 24.4291 3.92129C24.5502 3.85414 24.8243 3.72379 25.0383 3.63167C25.2523 3.53971 25.5647 3.39925 25.7324 3.31962C25.9002 3.24014 26.1885 3.12433 26.373 3.06239C26.5576 3.00045 26.7635 2.91466 26.8306 2.87184C26.8977 2.82902 27.186 2.71589 27.4712 2.6203C27.7564 2.52487 28.0172 2.4247 28.0508 2.39799C28.0844 2.37113 28.403 2.26164 28.7587 2.15451C29.1145 2.04723 29.4989 1.91767 29.6128 1.86648C29.7269 1.81528 29.8819 1.77215 29.9574 1.77089L30.0946 1.76836V8.37282ZM28.6914 15.1732C28.4397 15.2024 28.0966 15.2664 27.9288 15.3154C27.761 15.3644 27.3629 15.481 27.0441 15.5744C26.5297 15.7251 25.7122 16.0692 25.4579 16.2419C25.4076 16.2761 25.2428 16.3701 25.0918 16.4508C24.8542 16.5777 24.3905 16.8978 23.6793 17.426C23.2965 17.7106 22.1375 18.9501 21.8553 19.3772C21.8066 19.4508 21.627 19.721 21.456 19.9776C21.1912 20.3751 21.0542 20.6111 20.6906 21.2973C18.5005 25.43 19.4578 30.9274 22.8529 33.7163C23.2914 34.0765 23.7811 34.4394 24.0547 34.6071C24.2057 34.6995 24.3979 34.8232 24.4817 34.8818C25.1606 35.356 27.3251 36.2238 28.6151 36.5388L28.8744 36.6022V39.1613C28.8744 42.0783 28.8528 42.1856 28.4817 41.1107C28.2929 40.5634 27.899 39.6328 27.7729 39.4359C27.7397 39.3838 27.6471 39.1989 27.5675 39.0251C27.4878 38.8513 27.3515 38.6017 27.2645 38.4704C27.1776 38.3391 27.0657 38.1498 27.0158 38.0498C26.9659 37.9498 26.8887 37.8297 26.8443 37.7829C26.8001 37.7361 26.6792 37.5699 26.5756 37.4135C26.1799 36.8155 24.5733 35.2015 24.3735 35.2015C24.3407 35.2015 24.2813 35.1612 24.2418 35.1119C24.1468 34.9932 23.1973 34.4415 22.7735 34.2587C22.5889 34.1791 22.3556 34.0748 22.2549 34.0267C20.6798 33.2772 16.977 32.8368 13.5098 32.9869C12.5834 33.0271 11.8154 33.0704 11.8031 33.0832C11.7587 33.1291 12.551 35.4499 12.7312 35.8019C12.7845 35.9062 12.8283 36.0139 12.8286 36.0413C12.8295 36.1762 13.6675 37.9953 14.2758 39.1831C14.494 39.6094 14.8677 40.231 15.0234 40.4266C15.0559 40.4674 15.1314 40.5837 15.1911 40.6848C15.609 41.3926 17.2082 43.1016 17.4525 43.1016C17.485 43.1016 17.5444 43.1423 17.5842 43.1921C17.7018 43.3387 18.8051 43.9545 19.2349 44.1133C19.453 44.1938 19.6602 44.2822 19.6952 44.3096C20.0169 44.5613 22.9634 44.9009 24.0022 44.8058C26.5147 44.5762 28.0066 44.394 28.5084 44.2556C28.8965 44.1485 28.8744 43.9502 28.8744 47.5308V50.812H29.393H29.9116V32.9579V15.1037L29.5303 15.1119C29.3206 15.1163 28.9431 15.144 28.6914 15.1732ZM54.5899 23.6453C54.7913 23.7527 55.0602 23.9439 55.1877 24.07C55.3942 24.2746 55.4848 24.4101 55.7642 24.9322C56.4664 26.2441 55.2897 28.2197 53.7582 28.2998C53.1097 28.3338 52.2399 28.0221 52.125 27.7147C52.1114 27.6786 52.0153 27.5637 51.9115 27.4594C51.2797 26.8255 51.1571 25.5667 51.6363 24.6361C51.7352 24.4443 52.1968 23.8886 52.2575 23.8886C52.2833 23.8886 52.4206 23.8118 52.5626 23.7181C53.158 23.3248 53.937 23.2969 54.5899 23.6453ZM35.0767 35.2939C34.2495 35.746 33.3505 36.1059 32.1689 36.4585L31.3453 36.7042L31.3308 39.0024L31.3163 41.3003L31.4737 40.9211C32.6486 38.0912 34.1107 36.0552 35.7075 35.0253C36.1063 34.7681 35.8016 34.8978 35.0767 35.2939Z" fill="#04438C"/>
<path fill-rule="evenodd" clip-rule="evenodd" d="M29.6981 1.86695C29.5974 1.91799 29.5657 1.94516 29.6274 1.92699C29.6894 1.90898 29.8061 1.87707 29.8867 1.85605L30.0336 1.81781V30.3V58.7821L29.3778 58.748C27.9895 58.6759 27.1807 58.6589 27.5932 58.7102C27.8113 58.7374 28.4565 58.7703 29.027 58.7832L30.0641 58.8069L30.0798 54.8749L30.0955 50.943L30.6899 50.9249L31.2843 50.9068L31.2851 47.6046L31.286 44.3024L31.2694 47.5888L31.2527 50.8752H30.6736H30.0946L30.0948 26.3793C30.0949 12.9065 30.0795 1.85747 30.0608 1.82587C30.0133 1.74656 29.9128 1.75793 29.6981 1.86695ZM28.4588 2.2539C28.3141 2.30699 28.2065 2.3615 28.2196 2.37509C28.2328 2.38883 28.3925 2.34522 28.5743 2.27839C28.7561 2.21155 28.8638 2.15704 28.8134 2.1572C28.7631 2.15736 28.6036 2.20097 28.4588 2.2539ZM27.1858 2.73691C26.8739 2.85636 26.8748 2.91498 27.1869 2.80485C27.3432 2.74971 27.4712 2.69299 27.4712 2.67876C27.4712 2.64037 27.4006 2.65475 27.1858 2.73691ZM25.8976 3.26448C25.6864 3.35391 25.5239 3.4378 25.5365 3.45092C25.5584 3.47351 26.3154 3.17315 26.368 3.12085C26.4292 3.06002 26.2538 3.11359 25.8976 3.26448ZM24.7868 3.75918C24.6358 3.84292 24.5397 3.91149 24.5733 3.91149C24.6068 3.91149 24.7578 3.84292 24.9088 3.75918C25.0598 3.67544 25.1559 3.60687 25.1223 3.60687C25.0888 3.60687 24.9378 3.67544 24.7868 3.75918ZM23.7649 4.23145C23.6223 4.2986 23.5056 4.36764 23.5056 4.38502C23.5056 4.42089 23.974 4.21138 24.035 4.14818C24.0972 4.08371 24.0446 4.09999 23.7649 4.23145ZM21.7821 5.21738C21.5455 5.35025 21.5724 5.39623 21.8126 5.26952C22.0426 5.14849 22.0833 5.11704 22.0058 5.12052C21.975 5.12194 21.8744 5.16555 21.7821 5.21738ZM20.9279 5.69106C20.8021 5.75995 20.6992 5.83026 20.6992 5.84764C20.6992 5.86487 20.809 5.82094 20.9432 5.75C21.0774 5.67906 21.1872 5.60732 21.1872 5.59073C21.1872 5.54934 21.1868 5.5495 20.9279 5.69106ZM20.1348 6.13347C20.009 6.20236 19.906 6.27267 19.906 6.29005C19.906 6.30727 20.0159 6.26335 20.1501 6.1924C20.2843 6.12146 20.3941 6.04973 20.3941 6.03314C20.3941 5.99174 20.3937 5.9919 20.1348 6.13347ZM19.3411 6.59531C18.9918 6.81777 18.9813 6.87039 19.3264 6.66846C19.6776 6.46306 19.7026 6.44442 19.6265 6.4471C19.5956 6.44821 19.4672 6.51488 19.3411 6.59531ZM18.335 7.20298C18.226 7.27187 18.1368 7.34186 18.1368 7.35861C18.1368 7.3752 18.2328 7.33017 18.3503 7.25844C18.4677 7.18671 18.5638 7.11655 18.5638 7.10249C18.5638 7.0622 18.5446 7.07058 18.335 7.20298ZM17.6938 7.60652C17.4008 7.79312 17.3189 7.88128 17.5572 7.75362C17.7484 7.65123 18.0064 7.46052 17.9537 7.46037C17.937 7.46037 17.82 7.52609 17.6938 7.60652ZM16.8403 8.15289C16.6809 8.25669 16.5505 8.35529 16.5505 8.37235C16.5505 8.38942 16.6878 8.31579 16.8556 8.20882C17.0233 8.10185 17.1606 8.00263 17.1606 7.98825C17.1606 7.94654 17.1458 7.95412 16.8403 8.15289ZM16.1082 8.63021C15.9824 8.71569 15.8794 8.80085 15.8794 8.81965C15.8794 8.86753 16.241 8.64269 16.3187 8.54663C16.4068 8.43745 16.3722 8.45119 16.1082 8.63021ZM15.375 9.13344C15.2498 9.22161 15.1473 9.3074 15.1473 9.32399C15.1473 9.34058 15.2571 9.27896 15.3913 9.18701C15.6044 9.04086 15.6765 8.97323 15.619 8.97323C15.61 8.97323 15.5002 9.04528 15.375 9.13344ZM14.3026 9.8928C13.9954 10.1205 13.7441 10.3202 13.7441 10.3366C13.7441 10.3701 14.7007 9.69514 14.8401 9.56337C15.0424 9.37203 14.8284 9.50317 14.3026 9.8928ZM13.2865 10.6536L13.1035 10.8165L13.3018 10.6806C13.4108 10.6059 13.5 10.5324 13.5 10.5174C13.5 10.47 13.4743 10.4866 13.2865 10.6536ZM12.6853 11.0933C12.5294 11.2165 12.4019 11.3328 12.4019 11.3515C12.4019 11.3801 12.7873 11.0925 12.9784 10.9212C13.141 10.7754 12.9319 10.8982 12.6853 11.0933ZM12.0663 11.5695C11.7044 11.853 11.6557 11.9329 11.9951 11.6864C12.2515 11.5003 12.391 11.3709 12.3293 11.3766C12.3189 11.3775 12.2005 11.4644 12.0663 11.5695ZM11.3292 12.1705L11.0902 12.3976L11.3495 12.1969C11.5808 12.0178 11.6508 11.9437 11.5885 11.9437C11.5772 11.9437 11.4605 12.0457 11.3292 12.1705ZM10.4647 12.8642C10.1544 13.1271 9.90047 13.3556 9.90047 13.3718C9.90047 13.388 10.1613 13.184 10.4801 12.9184C10.9904 12.4932 11.1039 12.3861 11.0443 12.3861C11.0359 12.3861 10.775 12.6013 10.4647 12.8642ZM9.30563 13.8446C9.0288 14.0903 8.8023 14.3048 8.8023 14.3214C8.8023 14.338 9.03566 14.1481 9.32088 13.8992C9.77769 13.5008 9.88232 13.3965 9.82421 13.3976C9.81582 13.3977 9.58246 13.5989 9.30563 13.8446ZM8.4939 14.5823L8.28372 14.8193L8.51251 14.6016C8.72543 14.3987 8.76936 14.3453 8.72269 14.3453C8.71262 14.3453 8.60966 14.4519 8.4939 14.5823ZM7.73464 15.2407C7.02296 15.8934 5.02947 17.8817 4.2876 18.6788C3.93527 19.0574 4.31978 18.6851 5.14219 17.8517C5.9646 17.018 7.001 15.9978 7.4453 15.5845C8.15682 14.9226 8.29958 14.7796 8.23796 14.7904C8.22958 14.7918 8.00308 14.9944 7.73464 15.2407ZM29.5911 15.0852L29.9114 15.1103L29.9268 32.9928L29.9424 50.8752L29.9423 32.9737L29.9421 15.0721L29.6065 15.0661L29.271 15.0601L29.5911 15.0852ZM30.6895 15.0862C30.7985 15.1002 30.977 15.1002 31.086 15.0862C31.1951 15.0722 31.1059 15.0607 30.8877 15.0607C30.6696 15.0607 30.5804 15.0722 30.6895 15.0862ZM31.3911 15.1473C31.4498 15.1631 31.5459 15.1631 31.6046 15.1473C31.6633 15.1313 31.6153 15.1184 31.4978 15.1184C31.3804 15.1184 31.3324 15.1313 31.3911 15.1473ZM27.1967 15.4481C26.9618 15.5298 26.7971 15.599 26.8306 15.6019C26.8642 15.6046 27.0975 15.5387 27.3492 15.4552C27.6009 15.3718 27.7656 15.3026 27.7153 15.3017C27.6649 15.3006 27.4316 15.3664 27.1967 15.4481ZM33.1451 15.5355C33.1954 15.5676 33.3053 15.6131 33.3891 15.6363C33.4951 15.6657 33.5138 15.6606 33.4501 15.6199C33.3998 15.5878 33.29 15.5423 33.2061 15.5191C33.1001 15.4897 33.0815 15.4947 33.1451 15.5355ZM26.1967 15.8041C25.9101 15.9229 25.637 16.0686 25.6586 16.0912C25.6708 16.1037 25.7941 16.0574 25.9324 15.988C26.0709 15.9188 26.2112 15.8621 26.2445 15.8621C26.2777 15.8621 26.3218 15.8337 26.3425 15.7989C26.3865 15.7253 26.3871 15.7253 26.1967 15.8041ZM24.9241 16.4666C24.7815 16.5552 24.6648 16.6426 24.6648 16.6608C24.6648 16.6949 25.0764 16.4527 25.1803 16.3576C25.2851 16.2615 25.1875 16.3031 24.9241 16.4666ZM35.0364 16.3914C35.0364 16.4063 35.1342 16.4781 35.2536 16.5511C35.373 16.6241 35.4537 16.6553 35.4328 16.6202C35.3919 16.5516 35.0364 16.3465 35.0364 16.3914ZM24.2292 16.9401C24.0928 17.0632 24.0922 17.0665 24.2191 17.0029C24.2926 16.9661 24.3698 16.9076 24.3904 16.873C24.4505 16.7725 24.3846 16.7998 24.2292 16.9401ZM35.8905 16.9596C35.8905 16.977 35.9729 17.0518 36.0736 17.1261C36.1742 17.2004 36.2566 17.2468 36.2566 17.2294C36.2566 17.2121 36.1742 17.1372 36.0736 17.0629C35.9729 16.9886 35.8905 16.9422 35.8905 16.9596ZM23.3183 17.6589C23.0691 17.8825 22.6907 18.2735 22.4774 18.5279L22.09 18.9905L22.5995 18.4514C22.8798 18.1549 23.2738 17.7643 23.4751 17.5834C23.6764 17.4023 23.8256 17.2539 23.8064 17.2535C23.7873 17.253 23.5677 17.4355 23.3183 17.6589ZM36.3786 17.3388C36.3786 17.3562 36.461 17.4311 36.5616 17.5053C36.6623 17.5796 36.7447 17.626 36.7447 17.6086C36.7447 17.5913 36.6623 17.5164 36.5616 17.4421C36.461 17.3679 36.3786 17.3214 36.3786 17.3388ZM36.9887 17.9161C37.1025 18.0378 37.2094 18.1373 37.2262 18.1373C37.243 18.1373 37.1635 18.0378 37.0497 17.9161C36.9359 17.7945 36.829 17.6949 36.8122 17.6949C36.7955 17.6949 36.8749 17.7945 36.9887 17.9161ZM37.304 18.1917C37.3151 18.2217 37.5158 18.4563 37.7501 18.7131C37.9842 18.97 38.1363 19.1232 38.0878 19.0537C37.9682 18.8821 37.2785 18.1236 37.304 18.1917ZM21.9369 19.1643C21.6724 19.5225 21.5329 19.7363 21.5852 19.7036C21.6572 19.6584 22.0623 19.0853 22.0222 19.0853C22.0074 19.0853 21.9691 19.1209 21.9369 19.1643ZM3.22405 19.8376L2.86196 20.2545L3.25166 19.8619C3.46595 19.6459 3.62885 19.4582 3.6136 19.4448C3.5985 19.4315 3.42309 19.6082 3.22405 19.8376ZM21.3225 20.0491C21.0998 20.3898 21.0518 20.4757 21.0835 20.4757C21.0975 20.4757 21.2092 20.3193 21.3317 20.1281C21.4543 19.937 21.5419 19.7805 21.5263 19.7805C21.5109 19.7805 21.4191 19.9014 21.3225 20.0491ZM2.21968 20.9971C1.88596 21.3882 1.55285 21.7935 1.47963 21.8978L1.34663 22.0874L1.52066 21.8924C1.95886 21.4015 2.88819 20.2861 2.85906 20.2861C2.84121 20.2861 2.55355 20.6061 2.21968 20.9971ZM20.8517 20.8549C20.7667 21.0287 20.7109 21.1709 20.7277 21.1709C20.7445 21.1709 20.8277 21.0287 20.9127 20.8549C20.9976 20.6811 21.0535 20.5389 21.0367 20.5389C21.0199 20.5389 20.9366 20.6811 20.8517 20.8549ZM39.2155 20.8549C39.2676 20.9592 39.324 21.0445 39.3408 21.0445C39.3575 21.0445 39.3286 20.9592 39.2766 20.8549C39.2245 20.7507 39.1681 20.6653 39.1513 20.6653C39.1346 20.6653 39.1635 20.7507 39.2155 20.8549ZM20.4574 21.6604C20.2884 22.0352 20.2108 22.2454 20.2416 22.2454C20.2826 22.2454 20.5858 21.5381 20.5573 21.5086C20.5456 21.4964 20.5006 21.5647 20.4574 21.6604ZM39.6774 21.7714C39.6774 21.8061 39.7167 21.9057 39.7646 21.9926C39.8125 22.0795 39.8519 22.1221 39.8519 22.0874C39.8519 22.0526 39.8125 21.9531 39.7646 21.8662C39.7167 21.7793 39.6774 21.7366 39.6774 21.7714ZM19.8793 23.2605C19.8217 23.4732 19.786 23.6588 19.7997 23.6732C19.8136 23.6874 19.8717 23.5249 19.9289 23.3119C19.9861 23.0989 20.022 22.9131 20.0085 22.8992C19.9951 22.8853 19.937 23.0479 19.8793 23.2605ZM1.31552 23.225C1.31598 23.3988 1.32787 23.4624 1.34191 23.3664C1.35594 23.2702 1.35563 23.128 1.34114 23.0504C1.32665 22.9726 1.31506 23.0512 1.31552 23.225ZM53.2679 23.447C53.1111 23.4748 52.9326 23.5307 52.8713 23.5713C52.7679 23.6399 52.7687 23.6418 52.8817 23.5979C53.1404 23.4972 54.0337 23.4959 54.313 23.596C54.4627 23.6495 54.5948 23.6835 54.6066 23.6713C54.7251 23.5484 53.6817 23.3736 53.2679 23.447ZM52.3265 23.8804C51.971 24.1515 51.5683 24.6435 51.5712 24.8032C51.5718 24.839 51.6504 24.7394 51.7457 24.5822C51.9136 24.3052 52.1743 24.0346 52.4865 23.8129C52.5696 23.754 52.6212 23.7042 52.601 23.7023C52.5809 23.7004 52.4574 23.7807 52.3265 23.8804ZM54.9255 23.9202C55.0391 24.0071 55.1474 24.0772 55.1662 24.076C55.2228 24.0722 54.8383 23.7628 54.7763 23.7625C54.7448 23.7623 54.8119 23.8333 54.9255 23.9202ZM1.37455 24.1098C1.37516 24.2488 1.38766 24.2983 1.40231 24.2196C1.41695 24.1411 1.41634 24.0273 1.40108 23.9668C1.38583 23.9064 1.37378 23.9707 1.37455 24.1098ZM55.2937 24.2397C55.2961 24.3032 55.5958 24.7031 55.5963 24.6435C55.5965 24.6241 55.528 24.5119 55.4441 24.3942C55.3602 24.2765 55.2925 24.2069 55.2937 24.2397ZM1.43678 24.8366C1.43678 24.993 1.44867 25.057 1.46316 24.9788C1.4778 24.9006 1.4778 24.7726 1.46316 24.6944C1.44867 24.6162 1.43678 24.6802 1.43678 24.8366ZM55.7529 25.0578C55.777 25.1273 55.8095 25.4264 55.8254 25.7225C55.8513 26.2055 55.8265 26.4096 55.6909 26.8274C55.6683 26.8969 55.6997 26.8685 55.7606 26.7642C55.9004 26.5244 55.9224 25.2643 55.7903 25.0578L55.7095 24.9314L55.7529 25.0578ZM19.4489 25.8004C19.4259 26.1914 19.43 26.7531 19.4582 27.0486C19.5022 27.5084 19.5098 27.406 19.5119 26.3376C19.5147 24.8958 19.5066 24.8263 19.4489 25.8004ZM40.6049 25.3422C40.6049 25.4986 40.6168 25.5626 40.6313 25.4844C40.6459 25.4062 40.6459 25.2782 40.6313 25.2C40.6168 25.1218 40.6049 25.1858 40.6049 25.3422ZM1.48802 25.3125C1.47902 25.5624 1.6587 27.0642 1.70293 27.109C1.72169 27.1279 1.71894 26.987 1.69683 26.7958C1.56047 25.6168 1.49397 25.1445 1.48802 25.3125ZM40.6718 26.3534C40.6718 26.7184 40.6819 26.8677 40.6943 26.6852C40.7066 26.5027 40.7066 26.2041 40.6943 26.0216C40.6819 25.8391 40.6718 25.9884 40.6718 26.3534ZM51.5117 26.7509C51.5064 26.8494 51.7463 27.2801 51.8553 27.3678C51.9604 27.4523 51.9612 27.4504 51.8671 27.3319C51.8123 27.263 51.7106 27.0928 51.6409 26.9538C51.5713 26.8148 51.5131 26.7234 51.5117 26.7509ZM40.6037 27.333C40.6043 27.4721 40.6168 27.5215 40.6314 27.4428C40.6461 27.3643 40.6455 27.2505 40.6302 27.19C40.615 27.1297 40.6029 27.194 40.6037 27.333ZM55.1921 27.5277C54.9864 27.7509 54.8296 27.9334 54.8439 27.9334C54.8956 27.9334 55.4854 27.3352 55.5425 27.2251C55.6274 27.0606 55.6045 27.0804 55.1921 27.5277ZM52.2106 27.7835C52.7574 28.266 53.9233 28.4694 54.4069 28.1665C54.5076 28.1034 54.535 28.071 54.4679 28.0947C53.6783 28.3725 52.756 28.2271 52.2577 27.7463C52.1842 27.6754 52.1024 27.6184 52.0759 27.6196C52.0494 27.6209 52.1099 27.6947 52.2106 27.7835ZM19.723 28.7729C19.723 28.8615 20.0389 29.8392 20.0604 29.8171C20.0871 29.7893 19.8057 28.8195 19.7558 28.768C19.7378 28.7492 19.723 28.7514 19.723 28.7729ZM1.97518 29.0394C1.96664 29.2134 2.1666 30.3186 2.19223 30.2402C2.20367 30.2055 2.16081 29.8926 2.0972 29.545C2.03345 29.1974 1.97854 28.9699 1.97518 29.0394ZM40.2571 29.1072C40.2346 29.1998 40.228 29.2878 40.2423 29.3027C40.2568 29.3175 40.2869 29.254 40.3093 29.1612C40.3319 29.0687 40.3384 28.9807 40.3241 28.9658C40.3096 28.9509 40.2796 29.0145 40.2571 29.1072ZM20.2721 30.3572C20.2721 30.4234 20.4522 30.7774 20.4859 30.7774C20.5202 30.7774 20.3888 30.4516 20.3215 30.3698C20.2944 30.3368 20.2721 30.3311 20.2721 30.3572ZM39.7155 30.557C39.6597 30.6782 39.6266 30.7774 39.642 30.7774C39.6838 30.7774 39.869 30.3905 39.8411 30.3616C39.8278 30.3478 39.7713 30.4358 39.7155 30.557ZM20.7971 31.405C20.8607 31.517 20.9491 31.6403 20.9935 31.6788C21.0381 31.7174 21.0147 31.6439 20.9417 31.5158C20.8686 31.3875 20.7803 31.2642 20.7452 31.242C20.7103 31.2195 20.7336 31.2928 20.7971 31.405ZM2.40759 31.4411C2.40591 31.5946 2.62448 32.4916 2.63088 32.3575C2.63332 32.3053 2.58436 32.0494 2.52213 31.7887C2.45991 31.528 2.40835 31.3715 2.40759 31.4411ZM21.3677 32.2153C21.481 32.363 21.5847 32.4839 21.5981 32.4839C21.6413 32.4839 21.3799 32.1282 21.2688 32.0358C21.2098 31.9868 21.2543 32.0675 21.3677 32.2153ZM21.7249 32.6419C21.76 32.7114 21.975 32.9531 22.2029 33.1791L22.6171 33.5899L22.2265 33.1475C21.6405 32.4835 21.6495 32.4926 21.7249 32.6419ZM44.4506 32.9103C44.8467 32.9214 45.4782 32.9212 45.8538 32.9101C46.2294 32.8991 45.9052 32.8901 45.1335 32.8902C44.3617 32.8902 44.0544 32.8992 44.4506 32.9103ZM13.0577 32.9726C13.2003 32.9858 13.4337 32.9858 13.5763 32.9726C13.7189 32.9593 13.6022 32.9484 13.317 32.9484C13.0318 32.9484 12.9151 32.9593 13.0577 32.9726ZM16.3522 32.9719C16.4613 32.986 16.6397 32.986 16.7488 32.9719C16.8578 32.958 16.7686 32.9465 16.5505 32.9465C16.3324 32.9465 16.2432 32.958 16.3522 32.9719ZM42.9829 32.9699C43.0416 32.9857 43.1377 32.9857 43.1964 32.9699C43.2551 32.9539 43.2071 32.941 43.0897 32.941C42.9722 32.941 42.9242 32.9539 42.9829 32.9699ZM47.3146 32.9716C47.4068 32.986 47.5578 32.986 47.6501 32.9716C47.7424 32.9571 47.6669 32.9452 47.4823 32.9452C47.2978 32.9452 47.2223 32.9571 47.3146 32.9716ZM17.6639 33.0331C17.7227 33.0489 17.8187 33.0489 17.8775 33.0331C17.9362 33.0171 17.8881 33.0042 17.7707 33.0042C17.6533 33.0042 17.6052 33.0171 17.6639 33.0331ZM37.8695 33.1949L37.6903 33.4003L37.8886 33.2146C38.0735 33.0416 38.1149 32.9895 38.0678 32.9895C38.0573 32.9895 37.9681 33.0819 37.8695 33.1949ZM18.5943 33.146C18.9299 33.1887 19.3554 33.2453 19.54 33.2717C19.7245 33.2982 19.8615 33.3044 19.8444 33.2856C19.7974 33.2342 18.4711 33.0516 18.2109 33.0606C18.0863 33.0648 18.2588 33.1034 18.5943 33.146ZM11.7695 33.3055C11.7901 33.3924 11.8444 33.5488 11.8901 33.6531C11.9571 33.8054 11.9661 33.8115 11.9361 33.6847C11.9155 33.5978 11.8612 33.4413 11.8154 33.3371C11.7485 33.1848 11.7395 33.1786 11.7695 33.3055ZM39.9172 33.3055C39.7122 33.3736 39.9336 33.3736 40.1917 33.3055C40.3561 33.2622 40.3592 33.2571 40.2222 33.256C40.1383 33.2554 40.001 33.2777 39.9172 33.3055ZM48.2511 33.663C48.1966 33.8286 48.176 33.9368 48.2055 33.9035C48.2732 33.8262 48.4059 33.4195 48.3741 33.3865C48.361 33.3729 48.3057 33.4973 48.2511 33.663ZM20.8271 33.5197C20.8762 33.5741 21.8789 33.874 21.9087 33.8431C21.9216 33.8297 21.7304 33.7575 21.4834 33.6826C20.8465 33.4894 20.7862 33.4745 20.8271 33.5197ZM2.88987 33.6085C2.88163 33.7308 3.08602 34.5437 3.10722 34.4728C3.11728 34.4391 3.07366 34.2124 3.01036 33.9691C2.94722 33.7258 2.89292 33.5635 2.88987 33.6085ZM22.6515 33.5787C22.6515 33.5957 22.7956 33.733 22.9718 33.8836C23.1479 34.0343 23.2535 34.107 23.2063 34.0451C23.108 33.9158 22.6515 33.5322 22.6515 33.5787ZM38.0564 33.8449C37.9038 33.921 37.8987 33.9297 38.0259 33.8977C38.1987 33.8539 38.393 33.7512 38.3004 33.7526C38.2668 33.7531 38.157 33.7946 38.0564 33.8449ZM22.5238 34.1306C22.7387 34.2336 22.9246 34.3075 22.9368 34.2949C22.9635 34.2672 22.2625 33.9362 22.1863 33.9403C22.1568 33.9419 22.3087 34.0275 22.5238 34.1306ZM36.8034 34.1317L36.5921 34.3258L36.8209 34.1557C37.0232 34.0054 37.0889 33.9375 37.0322 33.9375C37.0226 33.9375 36.9196 34.0249 36.8034 34.1317ZM23.3636 34.1958C23.4029 34.2449 23.5265 34.3372 23.6381 34.4009L23.8411 34.5169L23.6886 34.3834C23.472 34.1938 23.2675 34.0757 23.3636 34.1958ZM23.3511 34.503C23.392 34.5715 23.9433 34.8956 23.9708 34.8672C23.9815 34.8559 23.8389 34.7569 23.6538 34.6467C23.4688 34.5366 23.3326 34.472 23.3511 34.503ZM12.2188 34.5881C12.2188 34.669 12.4757 35.3358 12.498 35.3127C12.5106 35.2994 12.4642 35.134 12.395 34.9449C12.2742 34.6151 12.2188 34.503 12.2188 34.5881ZM47.8281 34.8329C47.7729 34.9784 47.7377 35.1078 47.7499 35.1206C47.7621 35.1332 47.8179 35.025 47.8739 34.8803C47.9297 34.7354 47.9649 34.606 47.952 34.5925C47.939 34.5791 47.8833 34.6872 47.8281 34.8329ZM24.1462 34.7291C24.3315 34.8847 24.5054 34.9762 24.4548 34.8913C24.4317 34.8529 24.3256 34.7776 24.2186 34.724C24.0381 34.6336 24.0329 34.6339 24.1462 34.7291ZM24.2377 35.028C24.2377 35.0455 24.3956 35.1825 24.5885 35.3326C24.7815 35.4826 24.9672 35.6354 25.0014 35.672C25.0354 35.7087 25.1315 35.7956 25.2149 35.8651L25.3664 35.9915L25.2444 35.8422C25.1773 35.76 24.9576 35.5643 24.7563 35.407C24.555 35.2498 24.3559 35.0931 24.314 35.0588C24.272 35.0245 24.2377 35.0106 24.2377 35.028ZM35.2042 35.1426C35.0783 35.2114 34.9754 35.2818 34.9754 35.2991C34.9754 35.3164 35.0852 35.2724 35.2194 35.2015C35.3536 35.1305 35.4635 35.0588 35.4635 35.0422C35.4635 35.0008 35.463 35.001 35.2042 35.1426ZM24.7868 35.1046C24.7868 35.122 24.9241 35.2083 25.0918 35.2963C25.2596 35.3843 25.3969 35.4421 25.3969 35.4247C25.3969 35.4074 25.2596 35.3211 25.0918 35.2331C24.9241 35.1451 24.7868 35.0873 24.7868 35.1046ZM3.336 35.4227C3.4234 35.8207 3.56372 36.2884 3.58812 36.2631C3.6171 36.2331 3.37596 35.3132 3.32655 35.2647C3.3087 35.2473 3.31297 35.3184 3.336 35.4227ZM26.0474 35.7317C26.2207 35.8158 26.4266 35.9013 26.505 35.9217C26.5834 35.942 26.5103 35.8918 26.3425 35.81C26.1748 35.7283 25.9689 35.6428 25.885 35.62C25.8011 35.5973 25.8741 35.6475 26.0474 35.7317ZM12.7333 35.9909C12.8376 36.2495 12.9465 36.4518 12.9491 36.3917C12.9523 36.3187 12.7129 35.7703 12.6778 35.7703C12.6593 35.7703 12.6843 35.8695 12.7333 35.9909ZM25.4878 36.1437C25.6034 36.2808 25.824 36.4361 25.824 36.3805C25.824 36.366 25.721 36.2743 25.5952 36.177C25.4079 36.0318 25.3884 36.0258 25.4878 36.1437ZM32.9125 36.1294C32.7678 36.1825 32.6602 36.237 32.6733 36.2508C32.7013 36.2795 33.2671 36.0871 33.2671 36.0487C33.2671 36.0092 33.1977 36.025 32.9125 36.1294ZM47.3092 36.1838C47.207 36.4162 47.2266 36.4658 47.337 36.2546C47.3887 36.1558 47.4195 36.0632 47.4055 36.0488C47.3916 36.0343 47.3483 36.0951 47.3092 36.1838ZM27.6478 36.3151C27.8958 36.3995 28.1101 36.4567 28.1239 36.4424C28.1512 36.4141 27.3315 36.1457 27.2482 36.1557C27.2199 36.1591 27.3997 36.2309 27.6478 36.3151ZM33.9658 36.6709L33.7247 36.9395L33.984 36.6897C34.2251 36.4573 34.2713 36.4023 34.2251 36.4023C34.2152 36.4023 34.0985 36.5232 33.9658 36.6709ZM26.0985 36.7815C26.2295 36.9205 26.3505 37.0343 26.3672 37.0343C26.384 37.0343 26.2905 36.9205 26.1595 36.7815C26.0285 36.6425 25.9075 36.5287 25.8908 36.5287C25.874 36.5287 25.9675 36.6425 26.0985 36.7815ZM31.3911 36.5938L31.2538 36.651V39.1179C31.2538 41.6555 31.2595 41.7374 31.4094 41.3656C31.521 41.0889 31.5166 40.9826 31.4042 41.2371C31.3313 41.4021 31.32 41.1169 31.3176 39.0501L31.3148 36.6734L31.5131 36.6075C31.6222 36.5712 31.6702 36.5406 31.6199 36.5391C31.5695 36.5379 31.4666 36.5624 31.3911 36.5938ZM28.7524 39.1199C28.7356 40.5277 28.7288 41.6914 28.7372 41.7059C28.8018 41.8175 28.8128 41.3545 28.7988 39.1139L28.7829 36.5603L28.7524 39.1199ZM13.0955 36.8447C13.1411 37.0247 13.5177 37.8588 13.542 37.8335C13.5554 37.8197 13.455 37.5702 13.319 37.2791C13.1829 36.988 13.0824 36.7926 13.0955 36.8447ZM3.8041 37.0694C3.79769 37.164 4.05225 37.9313 4.08032 37.902C4.09328 37.8888 4.03731 37.681 3.95616 37.4404C3.87502 37.1996 3.80654 37.0327 3.8041 37.0694ZM46.8527 37.2585C46.7093 37.5698 46.7295 37.6227 46.8794 37.3285C46.9474 37.1948 46.9923 37.0744 46.9792 37.0607C46.9659 37.0471 46.909 37.1361 46.8527 37.2585ZM26.5643 37.3713C26.6758 37.5393 26.791 37.6921 26.8201 37.7107C26.9093 37.7679 26.7533 37.5213 26.552 37.2871L26.3618 37.0659L26.5643 37.3713ZM33.3806 37.3977C33.205 37.6172 33.1308 37.7295 33.161 37.7295C33.1777 37.7295 33.265 37.63 33.3545 37.5083C33.5208 37.2825 33.5409 37.1974 33.3806 37.3977ZM13.7746 38.3615C13.8929 38.6048 14.0034 38.8039 14.0201 38.8039C14.0369 38.8039 13.9539 38.6048 13.8356 38.3615C13.7172 38.1182 13.6068 37.9191 13.59 37.9191C13.5732 37.9191 13.6562 38.1182 13.7746 38.3615ZM27.0811 38.1675C27.1447 38.2795 27.2331 38.4028 27.2775 38.4413C27.322 38.4799 27.2987 38.4064 27.2257 38.2783C27.1526 38.15 27.0643 38.0267 27.0292 38.0044C26.9943 37.982 27.0176 38.0553 27.0811 38.1675ZM27.3602 38.5827C27.4035 38.7181 27.7189 39.3095 27.7477 39.3095C27.7645 39.3095 27.7104 39.1744 27.6272 39.0093C27.4767 38.7101 27.3217 38.4626 27.3602 38.5827ZM4.32893 38.7723C4.34891 38.8766 4.40291 39.0472 4.44882 39.1515L4.53225 39.3411L4.49808 39.1585C4.47932 39.058 4.42548 38.8873 4.37835 38.7793L4.29263 38.5827L4.32893 38.7723ZM14.2016 39.1831C14.2866 39.3569 14.3699 39.4991 14.3867 39.4991C14.4034 39.4991 14.3476 39.3569 14.2627 39.1831C14.1777 39.0093 14.0944 38.8671 14.0776 38.8671C14.0609 38.8671 14.1167 39.0093 14.2016 39.1831ZM32.3215 39.1199C32.2695 39.2242 32.2405 39.3095 32.2573 39.3095C32.274 39.3095 32.3305 39.2242 32.3825 39.1199C32.4345 39.0156 32.4635 38.9303 32.4467 38.9303C32.4299 38.9303 32.3735 39.0156 32.3215 39.1199ZM27.9038 39.6571C27.9038 39.6919 27.97 39.8483 28.0508 40.0047C28.1316 40.1612 28.1978 40.2607 28.1978 40.2259C28.1978 40.1912 28.1316 40.0348 28.0508 39.8783C27.97 39.7219 27.9038 39.6224 27.9038 39.6571ZM14.5904 39.8467C14.6234 39.9163 14.6949 40.03 14.7497 40.0995L14.849 40.2259L14.789 40.0995C14.7561 40.03 14.6845 39.9163 14.6298 39.8467L14.5305 39.7203L14.5904 39.8467ZM4.77903 40.1141C4.77461 40.2176 4.96709 40.7123 4.99897 40.6792C5.0127 40.665 4.96968 40.5146 4.90318 40.3449C4.83668 40.1752 4.78086 40.0713 4.77903 40.1141ZM15.1473 40.7315C15.2512 40.888 15.3498 41.0159 15.3666 41.0159C15.3834 41.0159 15.3122 40.888 15.2083 40.7315C15.1044 40.5751 15.0058 40.4471 14.989 40.4471C14.9722 40.4471 15.0434 40.5751 15.1473 40.7315ZM44.9808 40.7157C44.891 40.8428 44.8762 40.887 44.9421 40.8316C45.0421 40.7473 45.1934 40.5103 45.147 40.5103C45.1355 40.5103 45.0606 40.6028 44.9808 40.7157ZM28.4265 40.8892C28.4477 40.976 28.516 41.1608 28.5784 41.3C28.6406 41.4392 28.6748 41.482 28.6542 41.3951C28.6338 41.3082 28.5654 41.1234 28.5024 40.9843C28.4394 40.8453 28.4053 40.8025 28.4265 40.8892ZM15.5626 41.3003C15.8538 41.705 16.4646 42.3735 16.8107 42.6663C16.9979 42.8247 16.8882 42.6895 16.5456 42.3397C16.2243 42.0114 15.8306 41.5863 15.6709 41.3951C15.5112 41.204 15.4626 41.1613 15.5626 41.3003ZM5.24209 41.3948C5.26375 41.4816 5.33239 41.6664 5.39477 41.8056C5.457 41.9448 5.49025 41.9878 5.46844 41.9011C5.44678 41.8143 5.37814 41.6295 5.31576 41.4903C5.25353 41.3511 5.22028 41.3081 5.24209 41.3948ZM44.1268 41.806C43.9786 41.9624 43.871 42.0904 43.8878 42.0904C43.9046 42.0904 44.0396 41.9624 44.1878 41.806C44.3361 41.6495 44.4436 41.5215 44.4268 41.5215C44.41 41.5215 44.2751 41.6495 44.1268 41.806ZM43.4524 42.517L43.2422 42.754L43.471 42.5362C43.5968 42.4163 43.6997 42.3097 43.6997 42.2992C43.6997 42.2509 43.6482 42.2964 43.4524 42.517ZM5.7137 42.6592C5.76723 42.8644 5.95148 43.295 5.97527 43.2703C5.98915 43.2561 5.93028 43.0913 5.84471 42.9044C5.75899 42.7173 5.70012 42.607 5.7137 42.6592ZM17.1826 42.9608C17.2308 43.0417 17.5877 43.3153 17.5877 43.2714C17.5877 43.2558 17.4869 43.1633 17.3638 43.066C17.2405 42.9687 17.1589 42.9213 17.1826 42.9608ZM18.0452 43.5776C18.2214 43.7255 18.5236 43.8827 18.4749 43.801C18.4522 43.763 18.3187 43.674 18.1784 43.6034C18.0004 43.514 17.9601 43.506 18.0452 43.5776ZM6.20177 43.86C6.25531 44.0652 6.43956 44.4958 6.46335 44.4711C6.47723 44.4569 6.41836 44.2921 6.33279 44.1052C6.24707 43.9181 6.1882 43.8078 6.20177 43.86ZM41.2899 43.9864C41.1557 44.0507 41.0673 44.1055 41.0936 44.108C41.1659 44.1151 41.5644 43.9345 41.5644 43.8947C41.5644 43.8519 41.5832 43.8458 41.2899 43.9864ZM19.2285 44.1818C19.376 44.2496 19.5076 44.2937 19.5209 44.2799C19.5473 44.2528 19.0771 44.0467 19.0049 44.054C18.9804 44.0565 19.081 44.114 19.2285 44.1818ZM28.6762 44.281C28.7358 44.306 28.7524 45.0213 28.7524 47.5588C28.7524 49.3439 28.773 50.8177 28.7982 50.8338C28.8233 50.85 28.8366 49.3728 28.8276 47.5512C28.8124 44.456 28.8044 44.2395 28.7056 44.2442C28.6418 44.2472 28.6302 44.2618 28.6762 44.281ZM32.3215 44.4956C32.4557 44.5244 32.6479 44.546 32.7485 44.5436C32.8858 44.5405 32.8629 44.5267 32.657 44.4888C32.2888 44.4209 32.0003 44.4267 32.3215 44.4956ZM20.2756 44.513C20.3236 44.568 21.0889 44.7244 21.5228 44.768C22.0379 44.8197 21.8748 44.7669 21.158 44.6497C20.823 44.595 20.4798 44.5332 20.3953 44.5122C20.3107 44.4913 20.2568 44.4917 20.2756 44.513ZM26.2815 44.594C25.9124 44.6418 25.4457 44.707 25.2444 44.7389L24.8783 44.7971L25.3054 44.7664C25.8561 44.7268 27.1861 44.5555 27.2209 44.5196C27.2601 44.4789 27.0319 44.497 26.2815 44.594ZM22.3624 44.8533C22.4553 44.8679 22.5926 44.8675 22.6675 44.8525C22.7425 44.8375 22.6667 44.8255 22.4989 44.826C22.3312 44.8265 22.2697 44.8388 22.3624 44.8533ZM24.0097 44.8533C24.1026 44.8679 24.2398 44.8675 24.3147 44.8525C24.3898 44.8375 24.314 44.8255 24.1462 44.826C23.9784 44.8265 23.917 44.8388 24.0097 44.8533ZM6.67246 45.0292C6.67246 45.0639 6.73866 45.2204 6.81949 45.3768C6.90033 45.5332 6.96653 45.6327 6.96653 45.598C6.96653 45.5632 6.90033 45.4068 6.81949 45.2504C6.73866 45.094 6.67246 44.9944 6.67246 45.0292ZM7.09587 45.9533C7.09297 46.017 7.34112 46.5776 7.37224 46.5776C7.38795 46.5776 7.36065 46.4784 7.31169 46.357C7.20919 46.1028 7.09861 45.896 7.09587 45.9533ZM7.5269 46.9252C7.5269 46.96 7.60667 47.1448 7.70413 47.336C7.80159 47.5272 7.88136 47.6552 7.88136 47.6204C7.88136 47.5856 7.80159 47.4008 7.70413 47.2096C7.60667 47.0184 7.5269 46.8904 7.5269 46.9252ZM8.07019 48.1145C8.07019 48.1823 8.31072 48.6632 8.34473 48.6632C8.38042 48.6632 8.2523 48.3535 8.1492 48.1909C8.10573 48.1224 8.07019 48.0879 8.07019 48.1145ZM8.89382 49.8008C9.07898 50.1832 9.24416 50.496 9.26094 50.496C9.27772 50.496 9.13999 50.1832 8.95483 49.8008C8.76966 49.4185 8.60448 49.1056 8.5877 49.1056C8.57092 49.1056 8.70865 49.4185 8.89382 49.8008ZM9.56492 51.128C9.64988 51.3018 9.73316 51.444 9.74993 51.444C9.76671 51.444 9.71089 51.3018 9.62593 51.128C9.54098 50.9542 9.4577 50.812 9.44092 50.812C9.42414 50.812 9.47997 50.9542 9.56492 51.128ZM10.0193 51.9813C10.1291 52.1898 10.2478 52.3889 10.2832 52.4237C10.3185 52.4584 10.2575 52.3162 10.1477 52.1077C10.0379 51.8991 9.91923 51.7 9.88385 51.6652C9.84846 51.6305 9.90947 51.7727 10.0193 51.9813ZM10.4991 52.8661C10.5673 53.0051 10.6681 53.1757 10.7232 53.2453C10.7782 53.3148 10.7484 53.2295 10.6568 53.0557C10.452 52.6667 10.3286 52.5183 10.4991 52.8661ZM10.9565 53.6877C11.0081 53.7919 11.096 53.9341 11.1518 54.0037C11.2076 54.0732 11.1916 54.0163 11.1161 53.8773C10.9498 53.5704 10.8254 53.4225 10.9565 53.6877ZM11.4486 54.5725C11.498 54.6768 11.583 54.819 11.6376 54.8885C11.7303 55.0067 11.7309 55.0026 11.6469 54.8253C11.5975 54.721 11.5125 54.5788 11.4579 54.5093C11.3652 54.3911 11.3645 54.3952 11.4486 54.5725ZM11.8572 55.2835C11.9322 55.4138 12.0334 55.5631 12.0819 55.6153C12.1304 55.6674 12.0826 55.5608 11.9757 55.3783C11.8688 55.1958 11.7677 55.0465 11.751 55.0465C11.7344 55.0465 11.7822 55.1531 11.8572 55.2835ZM12.3322 56.0945C12.4247 56.2877 12.5407 56.3691 12.7737 56.4047L12.9815 56.4364L12.7679 56.3704C12.6505 56.334 12.4902 56.2274 12.4116 56.1335C12.3094 56.0112 12.2869 56.0002 12.3322 56.0945ZM14.1101 56.7431C14.2195 56.814 14.9017 56.9651 14.9389 56.9265C14.9533 56.9117 14.807 56.8646 14.6138 56.8218C14.4207 56.779 14.2077 56.7303 14.1406 56.7137C14.0453 56.6902 14.0386 56.6966 14.1101 56.7431ZM16.4232 57.2926C16.6048 57.3385 16.8931 57.3911 17.0638 57.4095C17.2874 57.4339 17.2291 57.4094 16.8556 57.3222C16.5703 57.2557 16.2821 57.2029 16.215 57.2053C16.1478 57.2075 16.2415 57.2468 16.4232 57.2926ZM18.7519 57.7265C18.7865 57.7613 20.0666 57.9556 20.1977 57.946C20.2553 57.9417 20.0143 57.8864 19.662 57.823C19.0371 57.7105 18.7006 57.6748 18.7519 57.7265ZM22.4684 58.2707C22.6194 58.2974 22.9763 58.3351 23.2616 58.3547L23.7801 58.3903L23.17 58.3019C22.5165 58.2071 21.9706 58.183 22.4684 58.2707ZM23.9784 58.4407C24.0539 58.4558 24.1775 58.4558 24.253 58.4407C24.3285 58.4257 24.2667 58.4133 24.1157 58.4133C23.9647 58.4133 23.9029 58.4257 23.9784 58.4407ZM24.7113 58.504C24.7871 58.5192 24.8969 58.5186 24.9553 58.5028C25.0136 58.487 24.9515 58.4745 24.8173 58.4753C24.6831 58.4759 24.6353 58.4889 24.7113 58.504ZM25.4426 58.5671C25.5181 58.5822 25.6417 58.5822 25.7172 58.5671C25.7927 58.5521 25.7309 58.5397 25.5799 58.5397C25.4289 58.5397 25.3671 58.5521 25.4426 58.5671ZM26.4806 58.6304C26.5564 58.6456 26.6662 58.645 26.7246 58.6292C26.7829 58.6134 26.7208 58.6009 26.5866 58.6017C26.4524 58.6023 26.4046 58.6153 26.4806 58.6304Z" fill="#0D5E9D"/>
<path fill-rule="evenodd" clip-rule="evenodd" d="M30.3861 15.0236C30.5295 15.037 30.7491 15.0368 30.8742 15.0232C30.9991 15.0096 30.8816 14.9987 30.6132 14.9989C30.3448 14.9992 30.2426 15.0103 30.3861 15.0236ZM31.7724 15.1597C31.8395 15.1896 32.0179 15.2312 32.1689 15.2523C32.3495 15.2775 32.3913 15.2729 32.291 15.2386C32.0632 15.1609 31.6244 15.0942 31.7724 15.1597ZM33.3974 15.5756C33.4486 15.6287 33.8772 15.8014 33.8772 15.769C33.8772 15.7516 33.7778 15.6943 33.6562 15.6417C33.4311 15.5443 33.3461 15.5225 33.3974 15.5756ZM34.5431 16.1161C34.7248 16.2199 34.8828 16.2951 34.8942 16.2833C34.9205 16.2561 34.3369 15.9248 34.2655 15.9264C34.2366 15.927 34.3615 16.0125 34.5431 16.1161ZM35.3414 16.5171C35.3414 16.5345 35.4238 16.6094 35.5245 16.6837C35.6251 16.7579 35.7075 16.8044 35.7075 16.787C35.7075 16.7696 35.6251 16.6947 35.5245 16.6205C35.4238 16.5462 35.3414 16.4998 35.3414 16.5171ZM36.7506 17.6475C36.7653 17.6562 36.9002 17.777 37.0506 17.9161L37.3243 18.1689L37.0831 17.9003C36.9504 17.7526 36.8154 17.6317 36.7831 17.6317C36.7508 17.6317 36.7361 17.6388 36.7506 17.6475ZM37.5683 18.4533C37.6993 18.5923 37.8203 18.7061 37.837 18.7061C37.8538 18.7061 37.7603 18.5923 37.6293 18.4533C37.4983 18.3143 37.3773 18.2005 37.3606 18.2005C37.3438 18.2005 37.4373 18.3143 37.5683 18.4533ZM38.8112 20.0649C38.8442 20.1344 38.9157 20.2482 38.9704 20.3177L39.0697 20.4441L39.0098 20.3177C38.9768 20.2482 38.9053 20.1344 38.8506 20.0649L38.7513 19.9385L38.8112 20.0649ZM2.66703 20.4283L2.48782 20.6337L2.6861 20.4481C2.79515 20.346 2.88438 20.2536 2.88438 20.2427C2.88438 20.1938 2.83404 20.2368 2.66703 20.4283ZM39.4105 21.1385C39.4663 21.2597 39.5227 21.3477 39.536 21.334C39.5639 21.3051 39.3787 20.9181 39.337 20.9181C39.3215 20.9181 39.3546 21.0173 39.4105 21.1385ZM1.2513 22.6877C1.2513 22.8094 1.26381 22.8592 1.27922 22.7983C1.29447 22.7375 1.29447 22.638 1.27922 22.5771C1.26381 22.5163 1.2513 22.5661 1.2513 22.6877ZM40.0741 22.7509C40.0965 22.8378 40.1405 22.9516 40.1714 23.0037C40.2108 23.0696 40.2156 23.0503 40.1873 22.9405C40.1649 22.8536 40.1209 22.7399 40.09 22.6877C40.0506 22.6218 40.0457 22.6411 40.0741 22.7509ZM40.5417 24.5838C40.5417 24.6707 40.5626 24.8271 40.5883 24.9314C40.6297 25.1004 40.6348 25.1039 40.6348 24.963C40.6348 24.8761 40.6139 24.7196 40.5883 24.6154C40.5468 24.4463 40.5417 24.4428 40.5417 24.5838ZM40.6647 25.5002C40.6653 25.6392 40.6778 25.6887 40.6924 25.61C40.7071 25.5314 40.7065 25.4177 40.6912 25.3572C40.676 25.2968 40.6639 25.3611 40.6647 25.5002ZM51.3468 25.8794C51.3471 26.1574 51.3578 26.2633 51.3706 26.1146C51.3836 25.9661 51.3834 25.7386 51.3703 25.609C51.3572 25.4796 51.3467 25.6013 51.3468 25.8794ZM40.7245 26.2902C40.7245 26.4118 40.737 26.4616 40.7524 26.4008C40.7676 26.3399 40.7676 26.2404 40.7524 26.1796C40.737 26.1187 40.7245 26.1685 40.7245 26.2902ZM40.6635 27.175C40.6635 27.2966 40.676 27.3464 40.6914 27.2856C40.7066 27.2247 40.7066 27.1252 40.6914 27.0644C40.676 27.0035 40.6635 27.0533 40.6635 27.175ZM38.7822 32.1836C38.515 32.5029 38.4357 32.6102 38.4667 32.6102C38.4845 32.6102 38.6004 32.4822 38.7243 32.3258C38.9534 32.0361 38.9988 31.925 38.7822 32.1836ZM37.9981 33.1016L37.764 33.4002L38.0292 33.1338C38.175 32.9872 38.2804 32.8529 38.2633 32.8352C38.2463 32.8174 38.1268 32.9373 37.9981 33.1016ZM42.5406 32.9262C42.1689 32.9649 42.1631 32.9679 42.4491 32.9722C42.6168 32.9747 42.9875 32.9556 43.2727 32.9297L43.7913 32.8826L43.3642 32.8837C43.1293 32.8844 42.7587 32.9035 42.5406 32.9262ZM47.3908 32.9324C47.8942 32.96 48.3677 32.9946 48.4432 33.009C48.5187 33.0234 48.5805 33.0149 48.5805 32.9902C48.5805 32.9343 47.547 32.8607 46.9333 32.8727C46.6393 32.8785 46.803 32.8998 47.3908 32.9324ZM13.9126 32.9709C13.9884 32.9861 14.0982 32.9855 14.1566 32.9697C14.2149 32.9539 14.1528 32.9414 14.0186 32.9422C13.8844 32.9428 13.8367 32.9558 13.9126 32.9709ZM11.7715 33.0316C11.7491 33.0547 11.7312 33.1045 11.7317 33.1422C11.7323 33.1852 11.75 33.1824 11.7791 33.1348C11.8055 33.0918 12.0094 33.0493 12.251 33.0367L12.6764 33.0142L12.2443 33.0018C12.0065 32.995 11.7937 33.0084 11.7715 33.0316ZM17.1766 33.0348C17.2695 33.0493 17.4068 33.049 17.4817 33.034C17.5567 33.019 17.4809 33.007 17.3131 33.0074C17.1454 33.0079 17.0839 33.0202 17.1766 33.0348ZM41.6719 33.0341C41.7478 33.0493 41.8576 33.0487 41.916 33.0329C41.9742 33.0171 41.9122 33.0046 41.7779 33.0054C41.6437 33.006 41.596 33.019 41.6719 33.0341ZM41.0916 33.0962C41.1503 33.112 41.2464 33.112 41.3051 33.0962C41.3638 33.0803 41.3158 33.0673 41.1984 33.0673C41.0809 33.0673 41.0329 33.0803 41.0916 33.0962ZM37.4434 33.6372L37.2022 33.9058L37.4615 33.656C37.7027 33.4236 37.7489 33.3686 37.7027 33.3686C37.6927 33.3686 37.5761 33.4895 37.4434 33.6372ZM39.2461 33.4318C39.1204 33.4736 39.115 33.4833 39.2155 33.4878C39.2827 33.4908 39.3787 33.4655 39.4291 33.4318C39.536 33.3603 39.4617 33.3603 39.2461 33.4318ZM37.7818 33.9058C37.6979 33.9555 37.6568 33.9962 37.6903 33.9962C37.7239 33.9962 37.82 33.9555 37.9038 33.9058C37.9877 33.8562 38.0289 33.8155 37.9954 33.8155C37.9618 33.8155 37.8657 33.8562 37.7818 33.9058ZM48.1502 34.0409C48.1165 34.1327 48.1004 34.2195 48.1142 34.2339C48.128 34.2482 48.1685 34.1732 48.2042 34.067C48.2835 33.8313 48.2357 33.8082 48.1502 34.0409ZM36.2453 34.5641C36.1675 34.6266 36.0194 34.7229 35.916 34.7779C35.8124 34.8328 35.7278 34.921 35.7278 34.9736C35.7278 35.0264 35.7511 35.0545 35.7796 35.0363C35.8082 35.018 35.8129 34.9719 35.79 34.9335C35.7638 34.8894 35.7839 34.878 35.8452 34.9024C35.9023 34.9251 36.0048 34.8804 36.0955 34.7933C36.1799 34.7123 36.2689 34.6643 36.293 34.6867C36.3173 34.7091 36.3145 34.687 36.2869 34.6377C36.2505 34.5729 36.2621 34.5581 36.3284 34.5845C36.3789 34.6045 36.4543 34.5992 36.496 34.5725C36.5537 34.5355 36.5496 34.5149 36.4791 34.487C36.4282 34.4667 36.3229 34.5014 36.2453 34.5641ZM35.5245 35.0106C35.4741 35.0435 35.433 35.1019 35.433 35.1405C35.433 35.179 35.3495 35.2866 35.2475 35.3798C35.0373 35.5717 35.1575 35.5028 35.4304 35.2749C35.5297 35.1921 35.6164 35.0848 35.6233 35.0365C35.6379 34.9332 35.6413 34.9341 35.5245 35.0106ZM47.7035 35.2632C47.5658 35.6197 47.5871 35.6728 47.732 35.3345C47.7975 35.1817 47.84 35.0453 47.8267 35.0316C47.8135 35.0179 47.7581 35.1221 47.7035 35.2632ZM34.4263 35.5807C34.2417 35.6816 34.1182 35.7643 34.1518 35.7643C34.1853 35.7643 34.3638 35.6816 34.5483 35.5807C34.7329 35.4797 34.8564 35.3971 34.8229 35.3971C34.7893 35.3971 34.6109 35.4797 34.4263 35.5807ZM34.5483 35.9915C34.4001 36.1479 34.2925 36.2759 34.3093 36.2759C34.3261 36.2759 34.4611 36.1479 34.6093 35.9915C34.7576 35.835 34.8651 35.7071 34.8483 35.7071C34.8316 35.7071 34.6966 35.835 34.5483 35.9915ZM33.3586 36.0196C33.2244 36.0855 33.142 36.1394 33.1756 36.1397C33.2589 36.1403 33.7402 35.9068 33.6637 35.903C33.6301 35.9014 33.4929 35.9539 33.3586 36.0196ZM33.9658 36.6077L33.7247 36.8763L33.984 36.6265C34.2251 36.3941 34.2713 36.3391 34.2251 36.3391C34.2152 36.3391 34.0985 36.4599 33.9658 36.6077ZM31.8639 36.4971C31.7465 36.544 31.6915 36.5822 31.7419 36.5822C31.7922 36.5822 31.9295 36.544 32.0469 36.4971C32.1644 36.4501 32.2193 36.4119 32.1689 36.4119C32.1186 36.4119 31.9813 36.4501 31.8639 36.4971ZM47.1872 36.563C47.085 36.7954 47.1045 36.845 47.215 36.6337C47.2667 36.535 47.2975 36.4424 47.2834 36.428C47.2696 36.4135 47.2263 36.4743 47.1872 36.563ZM28.8413 39.1515C28.8413 40.5767 28.8493 41.1687 28.859 40.4672C28.8689 39.7656 28.8689 38.5996 28.8592 37.8759C28.8493 37.1523 28.8413 37.7263 28.8413 39.1515ZM32.9293 37.9981C32.8352 38.1458 32.7973 38.2333 32.8449 38.1926C32.9366 38.1141 33.1701 37.7295 33.1262 37.7295C33.112 37.7295 33.0234 37.8504 32.9293 37.9981ZM46.3232 38.4879C46.2547 38.6269 46.2124 38.7407 46.2292 38.7407C46.246 38.7407 46.3157 38.6269 46.3842 38.4879C46.4527 38.3488 46.4949 38.2351 46.4781 38.2351C46.4613 38.2351 46.3916 38.3488 46.3232 38.4879ZM45.3353 40.2417C45.2277 40.3714 45.1472 40.5103 45.1794 40.5103C45.1919 40.5103 45.263 40.425 45.3374 40.3207C45.4844 40.1147 45.4831 40.0635 45.3353 40.2417ZM31.4783 40.9241C31.3349 41.2354 31.3551 41.2883 31.505 40.9941C31.573 40.8604 31.6179 40.74 31.6048 40.7263C31.5915 40.7127 31.5346 40.8017 31.4783 40.9241ZM44.9114 40.8737C44.7178 41.1158 44.6483 41.228 44.7188 41.1842C44.7969 41.1357 45.0677 40.7631 45.025 40.7631C45.0111 40.7631 44.9601 40.8129 44.9114 40.8737ZM43.8218 42.1731C43.503 42.4959 43.1186 42.8683 42.9676 43.0006C42.764 43.1791 42.7483 43.203 42.9066 43.093C43.1162 42.9476 44.4917 41.5899 44.4319 41.5876C44.4151 41.5869 44.1405 41.8505 43.8218 42.1731ZM28.8432 47.5572L28.8439 50.8436L29.3625 50.8472L29.8811 50.851L29.3784 50.8291L28.8755 50.8071L28.8589 47.5388L28.8422 44.2707L28.8432 47.5572ZM31.7114 44.4287C31.9694 44.4968 32.1909 44.4968 31.9859 44.4287C31.902 44.4009 31.7648 44.3787 31.6809 44.3793C31.5439 44.3804 31.547 44.3855 31.7114 44.4287ZM32.6723 44.5988C32.731 44.6146 32.8271 44.6146 32.8858 44.5988C32.9445 44.5828 32.8965 44.5698 32.779 44.5698C32.6616 44.5698 32.6136 44.5828 32.6723 44.5988ZM33.1604 44.662C33.2191 44.6778 33.3152 44.6778 33.3739 44.662C33.4326 44.646 33.3846 44.633 33.2671 44.633C33.1497 44.633 33.1016 44.646 33.1604 44.662ZM21.9964 44.7901C22.0893 44.8046 22.2265 44.8043 22.3014 44.7893C22.3765 44.7743 22.3007 44.7623 22.1329 44.7628C21.9651 44.7632 21.9036 44.7756 21.9964 44.7901ZM24.4066 44.7906C24.5162 44.8046 24.6809 44.8043 24.7726 44.7899C24.8643 44.7756 24.7746 44.764 24.5733 44.7643C24.3719 44.7647 24.2969 44.7765 24.4066 44.7906ZM34.228 44.7893C34.3035 44.8045 34.4271 44.8045 34.5026 44.7893C34.5781 44.7743 34.5163 44.762 34.3653 44.762C34.2143 44.762 34.1525 44.7743 34.228 44.7893ZM35.0211 44.8525C35.0966 44.8677 35.2202 44.8677 35.2957 44.8525C35.3712 44.8375 35.3094 44.8252 35.1584 44.8252C35.0074 44.8252 34.9456 44.8375 35.0211 44.8525ZM36.7447 44.8711L35.433 44.9065L36.6836 44.9157C37.3715 44.9208 38.0579 44.9023 38.2089 44.8743C38.4435 44.8312 38.4525 44.8247 38.2699 44.8298C38.1525 44.8331 37.4661 44.8517 36.7447 44.8711ZM30.6742 50.9384L30.0641 50.9771L30.6553 50.9894C30.9971 50.9964 31.2625 50.9749 31.2843 50.9384C31.3051 50.9036 31.3136 50.8807 31.3032 50.8874C31.2928 50.8942 31.0098 50.9171 30.6742 50.9384ZM26.7544 58.6942C26.8466 58.7086 26.9976 58.7086 27.0899 58.6942C27.1822 58.6797 27.1067 58.6678 26.9221 58.6678C26.7376 58.6678 26.6621 58.6797 26.7544 58.6942ZM27.5475 58.7557C27.6062 58.7715 27.7023 58.7715 27.761 58.7557C27.8197 58.7397 27.7717 58.7268 27.6542 58.7268C27.5368 58.7268 27.4888 58.7397 27.5475 58.7557ZM29.0727 58.8189C29.1314 58.8347 29.2275 58.8347 29.2862 58.8189C29.345 58.8029 29.2969 58.79 29.1795 58.79C29.062 58.79 29.014 58.8029 29.0727 58.8189Z" fill="#1A4C8C"/>
</svg>
