<svg width="60" height="60" viewBox="0 0 60 60" fill="none" xmlns="http://www.w3.org/2000/svg">
<path fill-rule="evenodd" clip-rule="evenodd" d="M25.7392 17.1606H33.6133V26.6682H42.7335V34.8769H33.6133V44.3845H25.7392V34.8769H16.6191V26.6682H25.7392V17.1606Z" fill="#009035"/>
<path fill-rule="evenodd" clip-rule="evenodd" d="M25.9568 0.936086C28.894 -0.360757 31.6697 -0.262331 34.348 0.936086L34.6436 6.17385C36.2754 6.53014 37.8461 7.05908 39.3383 7.7403L42.4321 3.47827C45.5634 4.1118 47.8136 5.80898 49.3939 8.36201L46.7502 13.0277C47.822 14.1483 48.7927 15.374 49.6474 16.6884L55.1005 14.589C57.4105 16.8819 58.4285 19.5758 58.4397 22.6141L53.2241 25.3625C53.4689 26.5256 53.6366 27.7186 53.7215 28.9356L59.6113 30.1717C60.4234 33.3873 59.9339 36.2374 58.414 38.8299L52.6779 38.3239C52.2405 39.7735 51.6795 41.1659 51.0096 42.489L54.977 46.6025C53.9537 49.752 52.0378 51.8483 49.3987 53.1374L45.3882 49.8357C44.1995 50.9016 42.9095 51.848 41.5361 52.6587L42.5378 57.5927C40.0271 59.6438 37.3229 60.304 34.4375 59.8759L33.0832 55.6555C31.9701 55.8199 30.833 55.9065 29.6763 55.9065C29.0432 55.9065 28.416 55.8807 27.7952 55.8308L26.3564 59.6869C23.1783 59.9697 20.5688 58.9783 18.3794 56.9728L19.2667 53.4489C17.5548 52.5933 15.9555 51.5325 14.4965 50.2983L10.5017 53.2733C7.69388 51.6955 6.03126 49.3762 5.25293 46.4482L8.71185 43.1916C7.95563 41.8074 7.32165 40.3413 6.82574 38.8089L1.34363 39.0421C-0.176857 36.119 -0.349654 33.2291 0.537148 30.3349L5.59692 29.5105C5.67378 27.8911 5.89903 26.3127 6.25621 24.7881L2.12649 22.6687C2.13072 19.3435 3.30368 16.719 5.40945 14.6183L9.95551 16.312C10.8857 14.9356 11.9454 13.6612 13.1157 12.5074L10.8434 8.88301C12.4717 6.0237 14.7634 4.38792 17.6019 3.69838L20.6127 7.47699C22.225 6.79452 23.9241 6.28959 25.6879 5.98295L25.9568 0.936086ZM29.6763 13.1336C39.0209 13.1336 46.5964 21.0308 46.5964 30.7725C46.5964 40.5142 39.0209 48.4115 29.6763 48.4115C20.3316 48.4115 12.7562 40.5142 12.7562 30.7725C12.7562 21.0308 20.3316 13.1336 29.6763 13.1336Z" fill="#009035"/>
</svg>
